<svg width="515" height="432" viewBox="0 0 515 432" fill="none" xmlns="http://www.w3.org/2000/svg">
<path d="M118.45 135.452C118.45 135.452 90.7275 53.423 187.424 63.4346C284.12 73.4462 237.92 37.1387 274.459 14.6074C310.998 -7.9238 418.659 62.1728 373.617 129.782C328.575 197.391 445.599 135.545 470.01 237.216C485.073 299.959 447.7 346.139 416.867 372.316" stroke="#CCDDE2" stroke-width="5.47" stroke-miterlimit="10"/>
<path d="M426.296 293.929C419.03 251.849 393.3 214.192 351.498 200.714C340.804 197.286 329.869 194.661 318.785 192.861V192.917C318.207 196.411 316.838 199.726 314.783 202.61C310.427 208.579 304.422 213.481 297.469 216.036C290.372 218.662 281.581 219.002 274.995 214.872C271.029 212.39 267.182 208.017 266.487 203.3C265.694 197.985 268.403 192.953 272.214 189.441C239.913 189.704 209.528 195.019 185.179 201.07C186.023 204.603 187.191 208.051 188.67 211.37C190.74 215.996 193.665 220.19 197.291 223.73C201.815 219.249 205.775 214.234 209.085 208.795C212.251 209.831 215.043 211.776 217.114 214.386C219.183 216.997 220.441 220.158 220.729 223.477V223.647C222.006 235.704 210.398 244.762 200.644 250.335C189.376 256.813 176.815 261.665 164.476 265.697C159.387 267.366 152.775 268.787 147.403 267.047C146.825 266.862 146.261 266.637 145.714 266.372C140.358 263.745 136.774 258.24 133.977 253.208C126.01 238.917 120.829 223.338 117.317 207.348C92.9421 210.463 90.1508 193.958 88.7036 189.91L67.8513 248.203C66.7574 252.393 66.6395 256.778 67.5052 261.021C68.3714 265.264 70.1991 269.252 72.8478 272.679C75.4959 276.105 78.8949 278.878 82.7826 280.786C86.6709 282.693 90.9444 283.684 95.275 283.681H181.599L220.811 384.261L231.925 412.807H295.404C290.254 412.807 287.437 411.55 285.392 409.501C283.281 407.388 282.092 404.525 282.086 401.539C282.086 395.359 287.159 390.291 295.404 390.291H295.986C295.363 390.291 294.765 390.235 294.142 390.178C294.529 390.136 294.912 390.072 295.291 389.987C294.882 389.978 294.475 389.947 294.07 389.895C297.789 389.455 301.235 387.723 303.806 385.001C306.377 382.278 307.909 378.739 308.135 375.001C308.145 374.807 308.145 374.613 308.135 374.419V374.12C308.046 370.288 306.581 366.616 304.009 363.774C301.436 360.933 297.926 359.112 294.122 358.644C294.554 358.608 294.966 358.572 295.383 358.572C295.007 358.48 294.59 358.423 294.199 358.366C294.817 358.31 295.44 358.268 296.037 358.268L342.48 358.516L351.024 358.552H361.164C361.633 358.552 362.107 358.552 362.555 358.608L377.619 358.686L387.682 358.742C391.888 358.777 395.908 360.477 398.864 363.469C401.82 366.461 403.471 370.501 403.456 374.707C403.451 377.086 402.899 379.43 401.844 381.562C406.162 381.009 410.166 379.013 413.205 375.897C420.451 368.496 423.572 357.419 425.73 347.572C429.546 330.031 429.319 311.548 426.296 293.929ZM308.959 295.114C300.209 308.581 285.31 307.371 285.31 307.371C285.31 307.371 284.074 308.576 281.19 303.447C278.306 298.317 270.092 294.81 270.092 294.81C269.438 299.96 268.083 307.788 254.642 297.643C241.2 287.497 245.253 272.706 246.402 264.894C247.55 257.081 252.129 254.491 252.129 254.491L257.536 251.638C257.536 251.638 241.895 247.616 241.144 247.466C240.392 247.317 226.461 235.652 240.598 232.572C254.734 229.493 276.771 241.739 281.03 244.16C285.289 246.58 310.179 267.634 310.179 267.634C310.179 267.634 317.755 281.667 308.959 295.114Z" fill="#353642"/>
<path d="M117.296 207.357C117.296 207.357 129.085 205.925 133.498 197.51L129.651 219.094C129.651 219.094 176.547 203.129 185.148 201.069C185.148 201.069 187.918 218.934 198.95 223.729L210.331 209.257C210.331 209.257 224.602 212.862 220.698 232.309C216.794 251.755 162.802 268.009 153.645 267.633C144.488 267.257 134.631 261.623 124.537 231.346L117.296 207.357Z" fill="#353642"/>
<path d="M136.501 159.277C139.488 164.139 142.49 168.99 145.59 173.78C147.501 176.73 150.983 180.938 147.28 184.023C146.075 184.947 144.619 185.485 143.103 185.568C140.724 185.779 138.226 185.207 136.779 183.163L129.569 171.215C128.132 168.832 125.85 167.078 123.178 166.301C120.506 165.524 117.639 165.782 115.149 167.023" stroke="black" stroke-width="5.47" stroke-miterlimit="10"/>
<path d="M163.77 175.014C165.655 179.494 164.378 182.384 162.173 183.836C158.568 186.2 153.743 185.067 151.189 181.616L136.526 159.301" stroke="black" stroke-width="5.47" stroke-miterlimit="10"/>
<path d="M148.912 152.788C154.248 159.277 160.979 171.328 164.702 176.36C168.426 181.391 174.183 178.358 174.183 178.358C178.859 175.84 178.066 171.663 176.022 166.59C170.985 154.137 163.796 145.856 155.777 140.428C130.928 123.619 105.436 136.02 97.85 165.035L67.8513 248.202C66.7574 252.393 66.6395 256.778 67.5052 261.021C68.3714 265.264 70.1991 269.252 72.8478 272.679C75.4959 276.105 78.8949 278.878 82.7826 280.786C86.6709 282.693 90.9444 283.683 95.275 283.681H181.599L231.941 412.812" stroke="black" stroke-width="5.47" stroke-miterlimit="10"/>
<path d="M179.735 160.878C185.915 158.736 185.632 148.879 176.861 145.552C167.174 141.875 149.973 136.673 145.652 135.375C145.626 135.355 145.593 135.342 145.56 135.339C145.256 135.247 145.045 135.169 144.88 135.133L144.638 135.056" stroke="black" stroke-width="5.47" stroke-miterlimit="10"/>
<path d="M271.044 259.433C265.637 252.934 250.836 249.252 241.174 247.47C239.551 247.165 238.07 246.34 236.955 245.121C235.841 243.901 235.153 242.353 234.994 240.708C234.882 239.599 235.01 238.478 235.37 237.422C235.946 235.802 237.05 234.421 238.504 233.503C239.958 232.584 241.678 232.18 243.389 232.355C259.869 234.023 276.864 239.209 289.435 250.38C289.435 250.38 350.375 296.884 357.652 301.411C360.654 303.234 363.456 301.081 361.422 298.218L360.783 297.126C357.201 290.979 352.962 285.239 348.14 280.008" stroke="black" stroke-width="5.47" stroke-miterlimit="10"/>
<path d="M272.172 189.435C195.53 190.074 129.651 219.089 129.651 219.089L136.228 182.225" stroke="black" stroke-width="5.47" stroke-miterlimit="10"/>
<path d="M391.209 390.063C391.209 390.063 382.861 388.173 380.642 394.858C378.422 401.542 376.105 412.177 392.064 412.805C408.024 413.434 398.651 410.297 397.729 405.132C396.808 399.966 391.209 390.063 391.209 390.063Z" fill="#353642"/>
<path d="M263.68 267.916C263.68 267.916 254.673 261.087 246.561 268.009C246.22 268.31 245.922 268.656 245.676 269.039" stroke="black" stroke-width="5.47" stroke-miterlimit="10"/>
<g opacity="0.77">
<path opacity="0.77" d="M151.158 181.592C153.733 185.048 158.553 186.176 162.143 183.807C164.321 182.365 165.598 179.491 163.76 175.052C164.094 175.541 164.398 175.973 164.697 176.37C168.415 181.422 174.178 178.378 174.178 178.378C178.854 175.86 178.066 171.683 176.022 166.606C174.021 161.576 171.396 156.818 168.209 152.443C170.295 150.491 172.772 148.519 175.383 149.384C178.2 150.321 178.988 153.854 179.308 156.8C179.457 158.17 179.606 159.524 179.756 160.894L182.011 181.062C182.763 187.757 183.515 194.549 185.148 201.085C185.992 204.618 187.16 208.066 188.639 211.385C190.709 216.011 193.634 220.205 197.26 223.745C201.784 219.264 205.744 214.249 209.054 208.81C212.22 209.846 215.013 211.791 217.083 214.401C219.153 217.012 220.41 220.173 220.698 223.492V223.662C221.975 235.719 210.367 244.777 200.613 250.35C189.345 256.828 176.784 261.68 164.445 265.712C159.356 267.381 152.744 268.802 147.372 267.061C146.794 266.877 146.23 266.651 145.683 266.387C140.327 263.76 136.743 258.255 133.946 253.223C120.556 229.147 114.994 201.502 112.064 174.125C117.925 173.316 123.765 172.415 129.533 171.174C129.533 171.174 129.533 171.215 129.569 171.23L136.218 182.256L136.763 183.173C138.205 185.233 140.703 185.784 143.088 185.578C144.604 185.503 146.06 184.964 147.259 184.033C150.957 180.943 147.486 176.751 145.57 173.8" fill="white"/>
<path opacity="0.77" d="M151.158 181.592C153.733 185.048 158.553 186.176 162.143 183.807C164.321 182.365 165.598 179.491 163.76 175.052C164.094 175.541 164.398 175.973 164.697 176.37C168.415 181.422 174.178 178.378 174.178 178.378C178.854 175.86 178.066 171.683 176.022 166.606C174.021 161.576 171.396 156.818 168.209 152.443C170.295 150.491 172.772 148.519 175.383 149.384C178.2 150.321 178.988 153.854 179.308 156.8C179.457 158.17 179.606 159.524 179.756 160.894L182.011 181.062C182.763 187.757 183.515 194.549 185.148 201.085C185.992 204.618 187.16 208.066 188.639 211.385C190.709 216.011 193.634 220.205 197.26 223.745C201.784 219.264 205.744 214.249 209.054 208.81C212.22 209.846 215.013 211.791 217.083 214.401C219.153 217.012 220.41 220.173 220.698 223.492V223.662C221.975 235.719 210.367 244.777 200.613 250.35C189.345 256.828 176.784 261.68 164.445 265.712C159.356 267.381 152.744 268.802 147.372 267.061C146.794 266.877 146.23 266.651 145.683 266.387C140.327 263.76 136.743 258.255 133.946 253.223C120.556 229.147 114.994 201.502 112.064 174.125C117.925 173.316 123.765 172.415 129.533 171.174C129.533 171.174 129.533 171.215 129.569 171.23L136.218 182.256L136.763 183.173C138.205 185.233 140.703 185.784 143.088 185.578C144.604 185.503 146.06 184.964 147.259 184.033C150.957 180.943 147.486 176.751 145.57 173.8" fill="#FBFF48"/>
<path opacity="0.77" d="M152.739 183.225C155.02 186.315 158.919 185.923 162.143 183.807C164.089 182.519 165.686 182.895 164.043 178.924C164.347 179.357 164.388 177.894 164.656 178.219C167.978 182.73 164.697 176.355 164.697 176.355C169.332 182.21 179.421 176.694 177.572 172.168C175.615 167.291 173.555 160.081 170.944 156.476C173.004 154.529 172.607 154.817 175.229 156.367C175.933 156.82 176.522 157.43 176.95 158.149C177.379 158.869 177.634 159.678 177.696 160.513C177.907 162.475 178.118 164.355 178.329 166.271L180.338 184.296C181.012 190.285 181.682 196.337 183.139 202.166C183.893 205.319 184.938 208.394 186.26 211.354C188.104 215.428 194.026 222.21 197.26 225.316C201.283 221.324 206.103 213.986 209.054 209.109C214.719 210.849 214.472 216.267 214.873 222.184V222.339C216.017 233.097 205.655 241.178 196.972 246.158C186.909 251.941 175.697 256.267 164.682 259.872C160.139 261.366 154.237 262.653 149.443 261.077C148.926 260.914 148.421 260.712 147.934 260.475C143.155 258.126 139.951 253.218 137.453 248.722C126.52 229.085 121.447 206.791 118.656 184.44C118.451 182.767 118.904 181.081 119.918 179.736C120.933 178.391 122.43 177.492 124.094 177.23C127.231 176.715 130.357 176.2 133.462 175.51L133.55 175.551L139.483 185.393C140.775 187.221 140.986 185.789 143.113 185.604C144.458 185.485 147.063 185.223 148.104 184.352C151.405 181.602 149.541 180.464 147.831 177.833" fill="#FBFF48"/>
</g>
<path d="M262.593 277.856C262.593 277.856 245.49 272.233 245.233 281.688" stroke="black" stroke-width="5.47" stroke-miterlimit="10"/>
<path opacity="0.54" d="M109.499 374.175L75.9574 288.242C75.5417 286.579 75.5108 284.843 75.8662 283.167C76.2221 281.49 76.9554 279.916 78.0101 278.566C79.0654 277.215 80.4142 276.122 81.955 275.371C83.4954 274.619 85.1872 274.229 86.9011 274.229H220.132C223.123 274.228 226.028 275.235 228.378 277.087C230.727 278.938 232.385 281.527 233.084 284.436L269.803 370.348C270.2 372.006 270.216 373.731 269.851 375.396C269.485 377.06 268.747 378.62 267.691 379.958C266.636 381.297 265.291 382.378 263.758 383.122C262.225 383.866 260.543 384.253 258.839 384.253H122.421C119.451 384.255 116.567 383.264 114.225 381.438C111.884 379.612 110.221 377.055 109.499 374.175Z" fill="white"/>
<path d="M268.16 292.352C268.16 292.352 270.936 294.896 269.881 298.532C269.098 301.225 266.42 302.925 263.768 302.003C255.322 299.083 247.715 294.123 245.861 285.693C244.985 281.424 244.795 277.043 245.3 272.715C245.706 268.703 246.299 264.372 247.648 260.556C249.708 254.695 256.017 250.611 262.14 253.433" stroke="black" stroke-width="5.47" stroke-miterlimit="10"/>
<path d="M109.499 374.175L75.9574 288.242C75.5417 286.579 75.5108 284.843 75.8662 283.167C76.2221 281.49 76.9554 279.916 78.0101 278.566C79.0654 277.215 80.4142 276.122 81.955 275.371C83.4954 274.619 85.1872 274.229 86.9011 274.229H220.132C223.123 274.228 226.028 275.235 228.378 277.087C230.727 278.938 232.385 281.527 233.084 284.436L269.803 370.348C270.2 372.006 270.216 373.731 269.851 375.396C269.485 377.06 268.747 378.62 267.691 379.958C266.636 381.297 265.291 382.378 263.758 383.122C262.225 383.866 260.543 384.253 258.839 384.253H122.421C119.451 384.255 116.567 383.264 114.225 381.438C111.884 379.612 110.221 377.055 109.499 374.175Z" fill="#FBFF48"/>
<path d="M109.499 374.175L75.9574 288.242C75.5417 286.579 75.5108 284.843 75.8662 283.167C76.2221 281.49 76.9554 279.916 78.0101 278.566C79.0654 277.215 80.4142 276.122 81.955 275.371C83.4954 274.619 85.1872 274.229 86.9011 274.229H220.132C223.123 274.228 226.028 275.235 228.378 277.087C230.727 278.938 232.385 281.527 233.084 284.436L269.803 370.348C270.2 372.006 270.216 373.731 269.851 375.396C269.485 377.06 268.747 378.62 267.691 379.958C266.636 381.297 265.291 382.378 263.758 383.122C262.225 383.866 260.543 384.253 258.839 384.253H122.421C119.451 384.255 116.567 383.264 114.225 381.438C111.884 379.612 110.221 377.055 109.499 374.175Z" stroke="black" stroke-width="5.47" stroke-linecap="square" stroke-linejoin="round"/>
<path d="M114.407 370.714L83.4609 291.404C83.0783 289.87 83.0504 288.269 83.379 286.722C83.7076 285.175 84.3843 283.724 85.3582 282.478C86.3315 281.232 87.5763 280.224 88.9972 279.531C90.4186 278.838 91.979 278.477 93.5601 278.477H216.47C219.229 278.476 221.909 279.405 224.077 281.113C226.244 282.82 227.774 285.208 228.418 287.892L262.3 367.155C262.665 368.685 262.68 370.277 262.342 371.813C262.004 373.349 261.322 374.788 260.348 376.022C259.375 377.256 258.134 378.255 256.719 378.941C255.305 379.627 253.752 379.984 252.18 379.984H126.324C123.589 379.986 120.932 379.075 118.773 377.397C116.615 375.717 115.078 373.366 114.407 370.714Z" fill="#FBFF48"/>
<path d="M377.454 358.273L401.02 412.806" stroke="black" stroke-width="5.47" stroke-miterlimit="10"/>
<path d="M489.25 412.806H25.75" stroke="black" stroke-width="5.47" stroke-miterlimit="10"/>
<path d="M270.051 166.677C266.229 170.452 260.523 170.446 257.273 166.955" stroke="black" stroke-width="5.47" stroke-miterlimit="10"/>
<path d="M168.209 152.427C170.295 150.475 172.772 148.502 175.383 149.367C178.2 150.305 178.988 153.838 179.308 156.783C180.21 164.879 181.112 172.967 182.011 181.046C183.155 191.346 184.36 201.892 188.639 211.358C190.709 215.984 193.634 220.178 197.26 223.718" stroke="black" stroke-width="5.47" stroke-miterlimit="10"/>
<path d="M220.698 223.656V223.486C220.41 220.167 219.153 217.005 217.083 214.395C215.012 211.785 212.22 209.84 209.054 208.804C205.744 214.243 201.784 219.258 197.26 223.739C185.402 235.531 170.167 243.34 153.671 246.084C154.464 249.241 156.097 252.115 157.224 255.154C158.352 258.192 158.914 261.71 157.544 264.64C155.813 268.379 150.849 267.89 147.398 267.06C147.362 267.06 147.342 267.06 147.305 267.06" stroke="black" stroke-width="5.47" stroke-miterlimit="10"/>
<path d="M129.543 171.168C123.775 172.41 117.935 173.311 112.074 174.119C115.005 201.497 120.546 229.142 133.957 253.218C136.753 258.25 140.337 263.755 145.693 266.382C146.24 266.647 146.804 266.872 147.383 267.056C152.754 268.823 159.367 267.376 164.455 265.707C176.815 261.669 189.355 256.823 200.623 250.345C210.352 244.767 221.96 235.713 220.708 223.657C220.587 222.33 220.316 221.02 219.9 219.754" stroke="black" stroke-width="5.47" stroke-miterlimit="10"/>
<path d="M225.992 116.556C226.856 120.16 228.829 123.402 231.634 125.824C234.438 128.247 237.932 129.729 241.623 130.06C241.929 128.573 242.594 127.183 243.559 126.012C247.679 121.156 249.435 130.266 262.614 123.726C280.876 114.641 287.808 119.853 287.808 119.853C288.415 120.306 288.323 124.487 288.426 125.25C288.941 129.591 289.404 133.912 289.914 138.248C290.223 140.895 290.527 143.522 290.815 146.149C291.064 145.702 291.339 145.27 291.639 144.856C293.303 138.969 296.274 132.017 302.681 135.009C303.978 135.642 305.108 136.571 305.977 137.723C310.226 143.305 307.007 148.697 302.563 152.689C301.449 153.927 300.203 155.041 298.849 156.011C299.581 157.525 302.568 163.535 302.568 163.556C302.877 164.163 313.316 152.349 314.093 151.061C315.255 147.907 315.878 144.581 315.937 141.22C316.107 127.403 310.483 111.319 299.292 103.393C296.516 101.431 297.402 99.5407 297.232 96.873C297.22 96.7288 297.165 96.5919 297.074 96.4796C296.982 96.3673 296.859 96.2854 296.72 96.2447C296.581 96.2041 296.433 96.2066 296.296 96.2514C296.158 96.2968 296.038 96.3823 295.95 96.4976C292.443 100.535 283.76 100.134 283.76 100.134C253.622 92.5836 243.492 105.984 237.41 108.374C234.928 109.313 232.197 109.359 229.685 108.502C229.537 109.333 229.165 110.109 228.609 110.744C228.052 111.38 227.333 111.851 226.528 112.107L226.682 113.502C226.814 114.57 226.57 115.649 225.992 116.556Z" fill="#FBFF48"/>
<path d="M241.643 130.082C237.952 129.751 234.458 128.269 231.654 125.847C228.85 123.424 226.877 120.182 226.013 116.579C225.675 115.197 225.461 113.787 225.374 112.366L225.611 112.341C225.935 112.316 226.254 112.247 226.559 112.135C227.364 111.878 228.083 111.407 228.639 110.771C229.196 110.136 229.568 109.361 229.716 108.53C229.81 108.069 229.829 107.595 229.772 107.129L229 100.31C229 100.31 234.449 104.363 240.495 101.994C246.541 99.6252 256.691 86.2249 286.845 93.7542C286.845 93.7542 293.653 94.1559 297.145 90.1183C297.233 90.0029 297.353 89.9174 297.491 89.8726C297.628 89.8273 297.776 89.8252 297.915 89.8659C298.054 89.9066 298.177 89.9885 298.268 90.1002C298.36 90.2125 298.415 90.35 298.427 90.4942C298.607 93.1671 299.596 95.0571 302.377 97.0141C313.568 104.945 319.192 121.023 319.017 134.841C318.965 140.573 317.06 146.233 314.119 151.089C313.341 152.377 302.902 164.191 302.593 163.583C302.593 163.583 299.606 157.552 298.875 156.038L298.7 155.704L299.035 155.482C300.278 154.638 301.465 153.714 302.588 152.717C307.028 148.725 310.251 143.333 306.003 137.751C305.133 136.599 304.004 135.669 302.707 135.037C296.28 132.044 293.329 138.997 291.665 144.883C291.342 146.008 291.143 147.165 291.073 148.334C290.996 147.613 290.918 146.918 290.841 146.197C290.553 143.57 290.249 140.944 289.94 138.297C289.425 133.96 288.941 129.639 288.451 125.298C288.374 124.556 288.452 120.354 287.834 119.901C287.834 119.901 280.896 114.689 262.64 123.774C249.461 130.314 247.705 121.199 243.585 126.06C242.62 127.232 241.955 128.621 241.648 130.108C241.554 130.585 241.494 131.069 241.468 131.555C241.458 131.618 241.458 131.682 241.468 131.746C241.406 132.812 241.386 133.873 241.36 134.913C241.262 144.95 242.364 155.436 246.304 164.757C251.093 176.056 263.768 187.201 276.946 181.932C281.066 180.279 284.759 177.617 288.137 174.789" stroke="black" stroke-width="5.47" stroke-miterlimit="10"/>
<path d="M250.662 154.562C251.972 154.124 252.605 152.482 252.074 150.897C251.544 149.31 250.051 148.38 248.74 148.819C247.429 149.257 246.797 150.899 247.327 152.485C247.858 154.071 249.351 155.001 250.662 154.562Z" fill="black"/>
<path d="M270.271 153.935C271.582 153.496 272.214 151.855 271.684 150.269C271.153 148.683 269.66 147.752 268.349 148.191C267.038 148.63 266.406 150.271 266.936 151.857C267.467 153.443 268.96 154.373 270.271 153.935Z" fill="black"/>
<path d="M262.774 157.331C262.774 157.331 256.249 161.034 255.852 157.192C255.728 156.007 254.132 144.404 254.132 144.404C254.132 144.404 248.858 138.817 240.778 142.947" stroke="black" stroke-width="5.47" stroke-miterlimit="10"/>
<path d="M261.306 141.153C261.306 141.153 271.843 135.89 278.816 143.476" stroke="black" stroke-width="5.47" stroke-miterlimit="10"/>
<path d="M270.967 183.225L272.178 189.436C268.361 192.953 265.663 197.995 266.451 203.304C267.151 208.012 271.003 212.394 274.953 214.861C281.556 218.981 290.336 218.657 297.443 216.035C304.391 213.46 310.401 208.573 314.758 202.609C316.809 199.726 318.176 196.413 318.754 192.922V192.86" stroke="black" stroke-width="5.47" stroke-miterlimit="10"/>
<path d="M272.177 189.435L274.536 200.652" stroke="black" stroke-width="5.47" stroke-miterlimit="10"/>
<path d="M305.534 160.879L309.098 184.543C309.449 186.859 310.62 188.973 312.398 190.499C314.176 192.025 316.442 192.863 318.785 192.86C329.877 194.658 340.818 197.281 351.518 200.709C393.321 214.192 419.05 251.848 426.317 293.924C429.34 311.542 429.567 330.02 425.771 347.541C423.613 357.403 420.492 368.48 413.246 375.866C403.837 385.496 389.397 381.531 378.278 377.179C343.757 363.753 315.046 339.867 290.254 312.521C276.998 297.895 259.869 286.173 259.869 286.173" stroke="black" stroke-width="5.47" stroke-miterlimit="10"/>
<path d="M125.815 352.964C121.942 352.928 118.568 349.802 117.698 345.45C115.978 336.891 115.525 323.655 128.075 320.766C143.757 317.161 155.818 334.239 161.731 345.033C163.719 348.638 161.468 353.273 157.765 353.273L125.815 352.964Z" fill="#D7E8F0"/>
<path d="M130.992 313.499C134.321 311.283 134.372 305.508 131.106 300.599C127.839 295.69 122.493 293.507 119.163 295.722C115.834 297.938 115.783 303.713 119.049 308.621C122.316 313.53 127.662 315.714 130.992 313.499Z" fill="#D7E8F0"/>
<path d="M388.707 390.346C388.465 390.382 388.192 390.418 387.955 390.474H387.862L351.23 390.284L296.264 390.001C296.053 390.001 295.847 390.001 295.641 390.001C295.233 389.991 294.825 389.96 294.42 389.908C298.144 389.475 301.596 387.743 304.169 385.016C306.742 382.289 308.27 378.742 308.485 374.999C308.495 374.805 308.495 374.611 308.485 374.417V374.118C308.47 370.456 307.194 366.911 304.871 364.079C302.549 361.247 299.322 359.302 295.734 358.57C295.358 358.478 294.946 358.421 294.549 358.364C295.172 358.308 295.79 358.266 296.393 358.266L342.83 358.514L351.379 358.55L362.91 358.606C366.858 358.967 370.53 360.787 373.208 363.711C375.885 366.635 377.375 370.452 377.387 374.417C377.387 375.165 377.331 375.912 377.217 376.652C376.668 380.426 374.782 383.878 371.904 386.38C369.025 388.882 365.344 390.267 361.53 390.284H389.433C387.826 390.284 388.274 390.284 388.707 390.346Z" fill="white"/>
<path d="M314.402 409.501C315.449 410.553 316.694 411.387 318.065 411.955C319.436 412.522 320.906 412.812 322.39 412.807H295.414C290.264 412.807 287.452 411.55 285.403 409.501C283.296 407.385 282.11 404.524 282.102 401.539C282.102 395.359 287.169 390.291 295.414 390.291H322.39C320.163 390.288 317.985 390.945 316.132 392.181C314.279 393.417 312.835 395.174 311.982 397.232C311.13 399.289 310.907 401.554 311.342 403.738C311.777 405.922 312.852 407.927 314.428 409.501H314.402Z" fill="#D7E8F0"/>
<path d="M403.492 374.7C403.486 377.079 402.932 379.424 401.875 381.555C401.12 383.166 400.084 384.629 398.816 385.876C396.725 387.948 394.098 389.398 391.23 390.063C390.048 390.335 388.838 390.474 387.625 390.475C387.872 390.418 388.14 390.382 388.377 390.346C387.944 390.305 387.496 390.289 389.108 390.289H361.2C365.017 390.275 368.701 388.889 371.582 386.386C374.463 383.884 376.35 380.429 376.898 376.652C377.011 375.912 377.068 375.165 377.068 374.417C377.056 370.452 375.565 366.634 372.886 363.709C370.208 360.785 366.535 358.966 362.586 358.606L377.65 358.684L387.713 358.74C391.918 358.776 395.938 360.474 398.895 363.465C401.852 366.455 403.505 370.495 403.492 374.7Z" fill="#FBFF48"/>
<path d="M403.492 374.696C403.461 378.904 401.763 382.928 398.771 385.886C395.779 388.845 391.735 390.497 387.527 390.481L295.898 390.007C295.286 390.007 294.673 389.961 294.055 389.899C297.917 389.461 301.485 387.622 304.082 384.729C306.678 381.837 308.124 378.092 308.145 374.205C308.165 370.318 306.758 366.559 304.192 363.639C301.625 360.72 298.077 358.843 294.219 358.365C294.832 358.301 295.447 358.27 296.063 358.273L387.692 358.746C391.9 358.775 395.924 360.47 398.886 363.459C401.847 366.448 403.503 370.488 403.492 374.696Z" stroke="black" stroke-width="5.47" stroke-linecap="square" stroke-linejoin="round"/>
<path d="M377.057 374.412C377.049 378.619 375.374 382.652 372.399 385.626C369.424 388.602 365.392 390.276 361.185 390.285H295.991C295.375 390.281 294.76 390.246 294.147 390.182C298.007 389.723 301.564 387.865 304.146 384.959C306.727 382.053 308.153 378.302 308.153 374.415C308.153 370.528 306.727 366.776 304.146 363.87C301.564 360.965 298.007 359.106 294.147 358.648C294.76 358.591 295.378 358.55 295.991 358.55H361.185C365.39 358.56 369.42 360.234 372.394 363.206C375.369 366.178 377.045 370.207 377.057 374.412Z" stroke="black" stroke-width="5.47" stroke-linecap="square" stroke-linejoin="round"/>
<path d="M282.102 401.542C282.101 403.019 282.392 404.481 282.957 405.846C283.523 407.21 284.352 408.45 285.398 409.493C287.458 411.553 290.254 412.805 295.409 412.805H389.103C387.491 412.805 387.929 412.774 388.367 412.733C385.625 412.41 383.098 411.093 381.263 409.029C379.429 406.967 378.416 404.302 378.416 401.542C378.416 398.781 379.429 396.117 381.263 394.054C383.098 391.992 385.625 390.674 388.367 390.351C387.929 390.31 387.491 390.279 389.103 390.279H295.409C287.159 390.284 282.102 395.352 282.102 401.542Z" stroke="black" stroke-width="5.47" stroke-linecap="square" stroke-linejoin="round"/>
<path d="M311.096 401.542C311.103 404.527 312.292 407.388 314.402 409.499C316.513 411.61 319.374 412.798 322.359 412.805H387.059C387.491 412.805 387.929 412.774 388.367 412.733C385.625 412.41 383.098 411.093 381.263 409.029C379.429 406.967 378.416 404.302 378.416 401.542C378.416 398.781 379.429 396.117 381.263 394.054C383.098 391.992 385.625 390.674 388.367 390.351C387.929 390.31 387.491 390.279 387.059 390.279H322.359C319.375 390.287 316.514 391.476 314.404 393.587C312.293 395.697 311.104 398.557 311.096 401.542Z" stroke="black" stroke-width="5.47" stroke-linecap="square" stroke-linejoin="round"/>
<path d="M206.216 315.61H177.315C175.992 315.608 174.699 315.221 173.593 314.497C172.486 313.772 171.614 312.742 171.083 311.531C170.878 311.081 170.79 310.585 170.828 310.091C170.866 309.597 171.028 309.121 171.299 308.707C171.571 308.293 171.943 307.954 172.38 307.722C172.818 307.49 173.307 307.373 173.802 307.38H204.527C203.08 309.816 203.816 313.2 206.216 315.61Z" fill="#D7E8F0"/>
<path d="M224.906 312.632C224.904 313.42 224.591 314.175 224.034 314.732C223.477 315.289 222.722 315.603 221.934 315.604H206.216C203.816 313.199 203.08 309.815 204.527 307.364H218.406C219.727 307.364 221.019 307.748 222.127 308.468C223.233 309.188 224.108 310.215 224.643 311.422C224.809 311.805 224.898 312.216 224.906 312.632Z" fill="#FBFF48"/>
<path d="M217.675 315.609C217.594 315.766 217.499 315.916 217.392 316.057C215.332 318.875 210.856 319.147 207.38 316.603C206.969 316.3 206.58 315.968 206.216 315.609C203.816 313.204 203.08 309.821 204.527 307.369C204.608 307.212 204.703 307.062 204.81 306.921C206.87 304.084 211.325 303.831 214.801 306.355C215.22 306.668 215.614 307.013 215.981 307.385C218.36 309.78 219.102 313.143 217.675 315.609Z" fill="white"/>
<path d="M232.172 330.777C232.167 331.566 231.85 332.32 231.29 332.876C230.731 333.432 229.974 333.744 229.185 333.744H198.857C200.32 331.282 199.588 327.924 197.183 325.504H225.673C226.996 325.504 228.29 325.889 229.397 326.612C230.505 327.336 231.378 328.366 231.91 329.577C232.08 329.955 232.169 330.363 232.172 330.777Z" fill="#FBFF48"/>
<path d="M198.857 333.742H184.586C183.265 333.743 181.972 333.36 180.865 332.64C179.758 331.919 178.884 330.892 178.35 329.684C178.181 329.306 178.092 328.898 178.087 328.484C178.086 328.095 178.163 327.708 178.312 327.348C178.46 326.988 178.679 326.661 178.954 326.385C179.23 326.109 179.557 325.891 179.917 325.742C180.278 325.593 180.664 325.517 181.053 325.518H197.183C199.588 327.923 200.335 331.28 198.857 333.742Z" fill="#D7E8F0"/>
<path d="M198.857 333.743C198.79 333.904 198.701 334.057 198.594 334.196C196.534 337.028 192.074 337.286 188.603 334.757C188.183 334.444 187.788 334.1 187.419 333.727C185.034 331.322 184.303 327.964 185.73 325.487C185.812 325.329 185.907 325.177 186.013 325.034C188.073 322.217 192.548 321.944 196.019 324.493C196.433 324.794 196.822 325.126 197.183 325.487C199.588 327.923 200.335 331.281 198.857 333.743Z" fill="white"/>
<path d="M208.961 351.753H190.802C189.482 351.752 188.19 351.367 187.084 350.647C185.976 349.927 185.102 348.902 184.566 347.695C184.361 347.243 184.274 346.746 184.312 346.252C184.351 345.757 184.513 345.28 184.785 344.865C185.056 344.449 185.428 344.109 185.866 343.876C186.304 343.642 186.794 343.523 187.29 343.529H207.272C205.84 345.995 206.577 349.348 208.961 351.753Z" fill="#FBFF48"/>
<path d="M238.388 348.807C238.384 349.59 238.07 350.341 237.514 350.893C236.958 351.445 236.205 351.754 235.422 351.753H208.961C206.577 349.348 205.84 345.99 207.272 343.513H231.889C233.212 343.513 234.506 343.898 235.614 344.621C236.721 345.345 237.594 346.375 238.126 347.586C238.295 347.971 238.385 348.386 238.388 348.807Z" fill="#D7E8F0"/>
<path d="M220.42 351.753C220.338 351.911 220.243 352.063 220.137 352.206C218.077 355.039 213.622 355.296 210.146 352.768C209.728 352.453 209.334 352.109 208.966 351.738C206.582 349.333 205.846 345.975 207.277 343.498C207.356 343.339 207.449 343.187 207.555 343.045C209.615 340.228 214.091 339.986 217.567 342.504C217.98 342.804 218.369 343.136 218.731 343.498C221.131 345.934 221.862 349.312 220.42 351.753Z" fill="white"/>
<path d="M83.2292 187.566L83.6824 187.695L83.5124 188.354C83.4048 188.097 83.31 187.833 83.2292 187.566Z" fill="#353642"/>
<path d="M163.825 228.768C170.604 226.778 174.166 218.578 171.781 210.454C169.396 202.33 161.967 197.356 155.188 199.346C148.409 201.337 144.847 209.536 147.232 217.661C149.617 225.785 157.046 230.758 163.825 228.768Z" fill="#D7E8F0"/>
</svg>
