<svg width="315" height="300" viewBox="0 0 315 300" fill="none" xmlns="http://www.w3.org/2000/svg">
<g clip-path="url(#clip0_27_166)">
<mask id="mask0_27_166" style="mask-type:luminance" maskUnits="userSpaceOnUse" x="-7" y="0" width="322" height="304">
<path d="M315 0H-7V304H315V0Z" fill="white"/>
</mask>
<g mask="url(#mask0_27_166)">
<g style="mix-blend-mode:multiply" opacity="0.33">
<g style="mix-blend-mode:multiply" opacity="0.33">
<path d="M9.23142 246.805L15.9572 237.198C16.0487 237.067 16.1889 236.978 16.3463 236.95C16.5037 236.922 16.6659 236.958 16.7971 237.05L23.6615 241.849C23.7928 241.941 23.8822 242.081 23.9099 242.238C23.9377 242.395 23.9016 242.558 23.8101 242.688L17.0843 252.295C16.4222 253.241 15.4107 253.886 14.2731 254.087C13.1351 254.288 11.9641 254.028 11.0175 253.367L10.3036 252.867C9.35695 252.206 8.71209 251.195 8.51125 250.058C8.3099 248.921 8.56931 247.751 9.23142 246.805Z" fill="#4E4E4E"/>
<path d="M9.23142 246.805L15.9572 237.198C16.0487 237.067 16.1889 236.978 16.3463 236.95C16.5037 236.922 16.6659 236.958 16.7971 237.05L23.6615 241.849C23.7928 241.941 23.8822 242.081 23.9099 242.238C23.9377 242.395 23.9016 242.558 23.81 242.688L17.0843 252.295C16.4222 253.241 15.4107 253.886 14.2731 254.087C13.1351 254.288 11.9641 254.028 11.0175 253.367L10.3036 252.867C9.35695 252.206 8.71209 251.195 8.51125 250.058C8.3099 248.921 8.56931 247.751 9.23142 246.805Z" stroke="#46505C" stroke-width="6.66667" stroke-linecap="round" stroke-linejoin="round"/>
</g>
<g style="mix-blend-mode:multiply" opacity="0.33">
<path d="M9.23142 246.805L15.9572 237.198C16.0487 237.067 16.1889 236.978 16.3463 236.95C16.5037 236.922 16.6659 236.958 16.7971 237.05L23.6615 241.849C23.7928 241.941 23.8822 242.081 23.9099 242.238C23.9377 242.395 23.9016 242.558 23.8101 242.688L17.0843 252.295C16.4222 253.241 15.4107 253.886 14.2731 254.087C13.1351 254.288 11.9641 254.028 11.0175 253.367L10.3036 252.867C9.35695 252.206 8.71209 251.195 8.51125 250.058C8.3099 248.921 8.56931 247.751 9.23142 246.805Z" fill="#4E4E4E"/>
<path d="M9.23142 246.805L15.9572 237.198C16.0487 237.067 16.1889 236.978 16.3463 236.95C16.5037 236.922 16.6659 236.958 16.7971 237.05L23.6615 241.849C23.7928 241.941 23.8822 242.081 23.9099 242.238C23.9377 242.395 23.9016 242.558 23.81 242.688L17.0843 252.295C16.4222 253.241 15.4107 253.886 14.2731 254.087C13.1351 254.288 11.9641 254.028 11.0175 253.367L10.3036 252.867C9.35695 252.206 8.71209 251.195 8.51125 250.058C8.3099 248.921 8.56931 247.751 9.23142 246.805Z" stroke="#46505C" stroke-width="6.66667" stroke-linecap="round" stroke-linejoin="round"/>
</g>
<g style="mix-blend-mode:multiply" opacity="0.33">
<path d="M35.0582 246.966C50.7404 246.966 63.4535 234.261 63.4535 218.589C63.4535 202.917 50.7404 190.213 35.0582 190.213C19.3756 190.213 6.66248 202.917 6.66248 218.589C6.66248 234.261 19.3756 246.966 35.0582 246.966Z" fill="#4E4E4E"/>
<path d="M35.0582 246.966C50.7404 246.966 63.4535 234.261 63.4535 218.589C63.4535 202.917 50.7404 190.213 35.0582 190.213C19.3756 190.213 6.66248 202.917 6.66248 218.589C6.66248 234.261 19.3756 246.966 35.0582 246.966Z" stroke="#46505C" stroke-width="6.66667" stroke-linecap="round" stroke-linejoin="round"/>
</g>
<g style="mix-blend-mode:multiply" opacity="0.33">
<path d="M35.0582 246.966C50.7404 246.966 63.4535 234.261 63.4535 218.589C63.4535 202.917 50.7404 190.213 35.0582 190.213C19.3756 190.213 6.66248 202.917 6.66248 218.589C6.66248 234.261 19.3756 246.966 35.0582 246.966Z" fill="#4E4E4E"/>
<path d="M35.0582 246.966C50.7404 246.966 63.4535 234.261 63.4535 218.589C63.4535 202.917 50.7404 190.213 35.0582 190.213C19.3756 190.213 6.66248 202.917 6.66248 218.589C6.66248 234.261 19.3756 246.966 35.0582 246.966Z" stroke="#46505C" stroke-width="6.66667" stroke-linecap="round" stroke-linejoin="round"/>
</g>
<g style="mix-blend-mode:multiply" opacity="0.33">
<path d="M35.0582 240.675C47.264 240.675 57.1592 230.787 57.1592 218.589C57.1592 206.391 47.264 196.503 35.0582 196.503C22.8519 196.503 12.9568 206.391 12.9568 218.589C12.9568 230.787 22.8519 240.675 35.0582 240.675Z" fill="#4E4E4E"/>
<path d="M35.0582 240.675C47.264 240.675 57.1592 230.787 57.1592 218.589C57.1592 206.391 47.264 196.503 35.0582 196.503C22.8519 196.503 12.9568 206.391 12.9568 218.589C12.9568 230.787 22.8519 240.675 35.0582 240.675Z" stroke="#46505C" stroke-width="6.66667" stroke-linecap="round" stroke-linejoin="round"/>
</g>
<g style="mix-blend-mode:multiply" opacity="0.33">
<path d="M35.0582 240.675C47.264 240.675 57.1592 230.787 57.1592 218.589C57.1592 206.391 47.264 196.503 35.0582 196.503C22.8519 196.503 12.9568 206.391 12.9568 218.589C12.9568 230.787 22.8519 240.675 35.0582 240.675Z" fill="#4E4E4E"/>
<path d="M35.0582 240.675C47.264 240.675 57.1592 230.787 57.1592 218.589C57.1592 206.391 47.264 196.503 35.0582 196.503C22.8519 196.503 12.9568 206.391 12.9568 218.589C12.9568 230.787 22.8519 240.675 35.0582 240.675Z" stroke="#46505C" stroke-width="6.66667" stroke-linecap="round" stroke-linejoin="round"/>
</g>
<g style="mix-blend-mode:multiply" opacity="0.33">
<path d="M20.6104 214.004C20.9059 213.339 21.226 212.686 21.5518 212.048C23.0334 209.145 24.8059 206.136 27.6343 204.359C30.0359 202.848 33.3941 202.257 35.997 203.593C38.2548 204.751 39.6152 207.134 41.6753 208.616C43.0633 209.466 44.5057 210.225 45.9931 210.886C47.4952 211.561 48.6835 212.782 49.3168 214.301C50.0145 216.43 48.8644 218.702 48.8534 220.942C48.8492 222.178 49.1929 223.391 49.8445 224.441C50.2561 224.933 50.5202 225.531 50.607 226.166C50.5443 226.572 50.3722 226.954 50.1092 227.27C49.8456 227.586 49.5009 227.825 49.1123 227.96C46.8231 229.041 44.1496 228.65 41.6324 228.379C39.1152 228.107 36.3276 228.049 34.3376 229.614C33.5227 230.365 32.768 231.178 32.0808 232.046C31.7906 232.481 31.4072 232.847 30.959 233.116C30.5108 233.386 30.0082 233.554 29.4878 233.607C28.9669 233.66 28.4413 233.597 27.9476 233.423C27.4538 233.249 27.0051 232.969 26.6327 232.601C24.8284 231.091 23.2636 229.317 21.9901 227.339C20.6522 225.666 19.7072 223.714 19.2244 221.627C18.772 219.036 19.5262 216.443 20.6104 214.004Z" fill="#4E4E4E"/>
<path d="M20.6104 214.004C20.9059 213.339 21.226 212.686 21.5518 212.048C23.0334 209.145 24.8059 206.136 27.6343 204.359C30.0359 202.848 33.3941 202.257 35.997 203.593C38.2548 204.751 39.6152 207.134 41.6753 208.616C43.0633 209.466 44.5057 210.225 45.9931 210.886C47.4952 211.561 48.6835 212.782 49.3168 214.301C50.0145 216.43 48.8644 218.702 48.8534 220.942C48.8492 222.178 49.1929 223.391 49.8445 224.441C50.2561 224.933 50.5202 225.531 50.607 226.166C50.5443 226.572 50.3722 226.954 50.1092 227.27C49.8456 227.586 49.5009 227.825 49.1123 227.96C46.8231 229.041 44.1496 228.65 41.6324 228.379C39.1152 228.107 36.3276 228.049 34.3376 229.614C33.5227 230.365 32.768 231.178 32.0808 232.046C31.7906 232.481 31.4072 232.847 30.959 233.116C30.5108 233.386 30.0082 233.554 29.4878 233.607C28.9669 233.66 28.4413 233.597 27.9476 233.423C27.4538 233.249 27.0051 232.969 26.6327 232.601C24.8284 231.091 23.2636 229.317 21.9901 227.339C20.6522 225.666 19.7072 223.714 19.2244 221.627C18.772 219.036 19.5262 216.443 20.6104 214.004Z" stroke="#46505C" stroke-width="6.66667" stroke-linecap="round" stroke-linejoin="round"/>
</g>
<g style="mix-blend-mode:multiply" opacity="0.33">
<path d="M39.5278 235.31C40.2857 235.31 40.8997 234.696 40.8997 233.939C40.8997 233.182 40.2857 232.568 39.5278 232.568C38.77 232.568 38.156 233.182 38.156 233.939C38.156 234.696 38.77 235.31 39.5278 235.31Z" fill="#4E4E4E"/>
<path d="M39.5278 235.31C40.2857 235.31 40.8997 234.696 40.8997 233.939C40.8997 233.182 40.2857 232.568 39.5278 232.568C38.77 232.568 38.156 233.182 38.156 233.939C38.156 234.696 38.77 235.31 39.5278 235.31Z" stroke="#46505C" stroke-width="6.66667" stroke-linecap="round" stroke-linejoin="round"/>
</g>
<g style="mix-blend-mode:multiply" opacity="0.33">
<path d="M35.9568 235.394C36.4814 235.394 36.9071 234.969 36.9071 234.445C36.9071 233.92 36.4814 233.495 35.9568 233.495C35.4322 233.495 35.007 233.92 35.007 234.445C35.007 234.969 35.4322 235.394 35.9568 235.394Z" fill="#4E4E4E"/>
<path d="M35.9568 235.394C36.4814 235.394 36.9071 234.969 36.9071 234.445C36.9071 233.92 36.4814 233.495 35.9568 233.495C35.4322 233.495 35.007 233.92 35.007 234.445C35.007 234.969 35.4322 235.394 35.9568 235.394Z" stroke="#46505C" stroke-width="6.66667" stroke-linecap="round" stroke-linejoin="round"/>
</g>
<g style="mix-blend-mode:multiply" opacity="0.33">
<path d="M42.7699 233.524C43.2453 233.524 43.6313 233.139 43.6313 232.663C43.6313 232.188 43.2453 231.803 42.7699 231.803C42.2945 231.803 41.9085 232.188 41.9085 232.663C41.9085 233.139 42.2945 233.524 42.7699 233.524Z" fill="#4E4E4E"/>
<path d="M42.7699 233.524C43.2453 233.524 43.6313 233.139 43.6313 232.663C43.6313 232.188 43.2453 231.803 42.7699 231.803C42.2945 231.803 41.9085 232.188 41.9085 232.663C41.9085 233.139 42.2945 233.524 42.7699 233.524Z" stroke="#46505C" stroke-width="6.66667" stroke-linecap="round" stroke-linejoin="round"/>
</g>
<g style="mix-blend-mode:multiply" opacity="0.33">
<path d="M32.9516 235.416C33.2921 235.416 33.5688 235.141 33.5688 234.8C33.5688 234.459 33.2921 234.183 32.9516 234.183C32.6106 234.183 32.3345 234.459 32.3345 234.8C32.3345 235.141 32.6106 235.416 32.9516 235.416Z" fill="#4E4E4E"/>
<path d="M32.9516 235.416C33.2921 235.416 33.5688 235.141 33.5688 234.8C33.5688 234.459 33.2921 234.183 32.9516 234.183C32.6106 234.183 32.3345 234.459 32.3345 234.8C32.3345 235.141 32.6106 235.416 32.9516 235.416Z" stroke="#46505C" stroke-width="6.66667" stroke-linecap="round" stroke-linejoin="round"/>
</g>
<g style="mix-blend-mode:multiply" opacity="0.33">
<path d="M45.49 232.131C45.6982 232.131 45.8666 231.962 45.8666 231.754C45.8666 231.546 45.6982 231.378 45.49 231.378C45.2824 231.378 45.1135 231.546 45.1135 231.754C45.1135 231.962 45.2824 232.131 45.49 232.131Z" fill="#4E4E4E"/>
<path d="M45.49 232.131C45.6982 232.131 45.8666 231.962 45.8666 231.754C45.8666 231.546 45.6982 231.378 45.49 231.378C45.2824 231.378 45.1135 231.546 45.1135 231.754C45.1135 231.962 45.2824 232.131 45.49 232.131Z" stroke="#46505C" stroke-width="6.66667" stroke-linecap="round" stroke-linejoin="round"/>
</g>
<g style="mix-blend-mode:multiply" opacity="0.33">
<path d="M17.908 214.254C18.3965 214.254 18.7919 213.859 18.7919 213.371C18.7919 212.883 18.3965 212.488 17.908 212.488C17.4201 212.488 17.0242 212.883 17.0242 213.371C17.0242 213.859 17.4201 214.254 17.908 214.254Z" fill="#4E4E4E"/>
<path d="M17.908 214.254C18.3965 214.254 18.7919 213.859 18.7919 213.371C18.7919 212.883 18.3965 212.488 17.908 212.488C17.4201 212.488 17.0242 212.883 17.0242 213.371C17.0242 213.859 17.4201 214.254 17.908 214.254Z" stroke="#46505C" stroke-width="6.66667" stroke-linecap="round" stroke-linejoin="round"/>
</g>
<g style="mix-blend-mode:multiply" opacity="0.33">
<path d="M41.9702 203.925C42.4294 203.925 42.8018 203.553 42.8018 203.093C42.8018 202.635 42.4294 202.262 41.9702 202.262C41.511 202.262 41.1387 202.635 41.1387 203.093C41.1387 203.553 41.511 203.925 41.9702 203.925Z" fill="#4E4E4E"/>
<path d="M41.9702 203.925C42.4294 203.925 42.8018 203.553 42.8018 203.093C42.8018 202.635 42.4294 202.262 41.9702 202.262C41.511 202.262 41.1387 202.635 41.1387 203.093C41.1387 203.553 41.511 203.925 41.9702 203.925Z" stroke="#46505C" stroke-width="6.66667" stroke-linecap="round" stroke-linejoin="round"/>
</g>
<g style="mix-blend-mode:multiply" opacity="0.33">
<path d="M47.3754 207.94C47.7912 207.94 48.1285 207.603 48.1285 207.188C48.1285 206.772 47.7912 206.435 47.3754 206.435C46.9596 206.435 46.6223 206.772 46.6223 207.188C46.6223 207.603 46.9596 207.94 47.3754 207.94Z" fill="#4E4E4E"/>
<path d="M47.3754 207.94C47.7912 207.94 48.1285 207.603 48.1285 207.188C48.1285 206.772 47.7912 206.435 47.3754 206.435C46.9596 206.435 46.6223 206.772 46.6223 207.188C46.6223 207.603 46.9596 207.94 47.3754 207.94Z" stroke="#46505C" stroke-width="6.66667" stroke-linecap="round" stroke-linejoin="round"/>
</g>
<g style="mix-blend-mode:multiply" opacity="0.33">
<path d="M47.9936 209.649C48.1756 209.649 48.3231 209.502 48.3231 209.32C48.3231 209.138 48.1756 208.99 47.9936 208.99C47.8116 208.99 47.6641 209.138 47.6641 209.32C47.6641 209.502 47.8116 209.649 47.9936 209.649Z" fill="#4E4E4E"/>
<path d="M47.9936 209.649C48.1756 209.649 48.3231 209.502 48.3231 209.32C48.3231 209.138 48.1756 208.99 47.9936 208.99C47.8116 208.99 47.6641 209.138 47.6641 209.32C47.6641 209.502 47.8116 209.649 47.9936 209.649Z" stroke="#46505C" stroke-width="6.66667" stroke-linecap="round" stroke-linejoin="round"/>
</g>
</g>
<path d="M3.06108 239.808L9.79104 230.199C9.88309 230.068 10.0227 229.979 10.1802 229.951C10.3381 229.923 10.5002 229.959 10.631 230.05L17.498 234.854C17.6292 234.945 17.7187 235.085 17.7464 235.243C17.7741 235.4 17.738 235.562 17.6465 235.693L10.916 245.303C10.2534 246.249 9.24136 246.893 8.10332 247.094C6.96475 247.295 5.79322 247.036 4.84659 246.373L4.13218 245.874C3.18555 245.211 2.54069 244.2 2.33934 243.063C2.1385 241.925 2.39791 240.754 3.06108 239.808Z" fill="white" stroke="#E6F3FF" stroke-width="3.33333" stroke-miterlimit="10"/>
<path opacity="0.18" d="M10.631 230.053C10.4997 229.962 10.3376 229.925 10.1802 229.954C10.0228 229.981 9.88311 230.071 9.79159 230.202L6.7608 234.527C7.92291 235.634 9.16661 236.651 10.482 237.571C11.7968 238.49 13.1785 239.31 14.6152 240.023L17.646 235.696C17.6915 235.631 17.7239 235.558 17.7412 235.481C17.7585 235.403 17.76 235.323 17.7464 235.245C17.7323 235.168 17.7035 235.093 17.6606 235.026C17.6183 234.96 17.5628 234.902 17.498 234.857L10.631 230.053Z" fill="#4E4E4E" stroke="#46505C" stroke-width="6.66667" stroke-linecap="round" stroke-linejoin="round"/>
<path d="M3.06108 239.808L9.79104 230.199C9.88309 230.068 10.0227 229.979 10.1802 229.951C10.3381 229.923 10.5002 229.959 10.631 230.05L17.498 234.854C17.6292 234.945 17.7187 235.085 17.7464 235.243C17.7741 235.4 17.738 235.562 17.6465 235.693L10.916 245.303C10.2534 246.249 9.24136 246.893 8.10332 247.094C6.96475 247.295 5.79322 247.036 4.84659 246.373L4.13218 245.874C3.18555 245.211 2.54069 244.2 2.33934 243.063C2.1385 241.925 2.39791 240.754 3.06108 239.808Z" stroke="#46505C" stroke-width="6.66667" stroke-linecap="round" stroke-linejoin="round"/>
<path d="M28.7634 239.845C44.4456 239.845 57.1586 227.14 57.1586 211.468C57.1586 195.796 44.4456 183.091 28.7634 183.091C13.0807 183.091 0.368164 195.796 0.368164 211.468C0.368164 227.14 13.0807 239.845 28.7634 239.845Z" fill="white" stroke="#E6F3FF" stroke-width="3.33333" stroke-miterlimit="10"/>
<path d="M28.7634 239.845C44.4456 239.845 57.1586 227.14 57.1586 211.468C57.1586 195.796 44.4456 183.091 28.7634 183.091C13.0807 183.091 0.368164 195.796 0.368164 211.468C0.368164 227.14 13.0807 239.845 28.7634 239.845Z" stroke="#46505C" stroke-width="6.66667" stroke-linecap="round" stroke-linejoin="round"/>
<path d="M28.7629 233.554C40.9692 233.554 50.8638 223.666 50.8638 211.468C50.8638 199.27 40.9692 189.381 28.7629 189.381C16.5566 189.381 6.66193 199.27 6.66193 211.468C6.66193 223.666 16.5566 233.554 28.7629 233.554Z" fill="#845B5B"/>
<path d="M28.7629 233.554C40.9692 233.554 50.8638 223.666 50.8638 211.468C50.8638 199.27 40.9692 189.381 28.7629 189.381C16.5566 189.381 6.66193 199.27 6.66193 211.468C6.66193 223.666 16.5566 233.554 28.7629 233.554Z" stroke="#46505C" stroke-width="3.33333" stroke-linecap="round" stroke-linejoin="round"/>
<g style="mix-blend-mode:multiply" opacity="0.33">
<path d="M14.315 206.883C14.6105 206.218 14.9306 205.565 15.2564 204.926C16.7386 202.024 18.5115 199.016 21.3389 197.237C23.7415 195.727 27.0992 195.136 29.7016 196.471C31.9594 197.63 33.3203 200.014 35.3799 201.495C36.7684 202.343 38.2114 203.1 39.6988 203.76C41.1998 204.436 42.3881 205.655 43.0225 207.173C43.7201 209.303 42.5701 211.574 42.558 213.814C42.5544 215.05 42.8975 216.263 43.5491 217.313C43.9607 217.804 44.2254 218.402 44.3127 219.037C44.2505 219.444 44.0779 219.826 43.8148 220.142C43.5512 220.459 43.2066 220.697 42.818 220.833C40.5278 221.913 37.8547 221.523 35.337 221.25C32.8198 220.978 30.0332 220.922 28.0422 222.486C27.2279 223.236 26.4732 224.05 25.7854 224.918C25.4952 225.353 25.1118 225.718 24.6636 225.988C24.2154 226.258 23.7133 226.426 23.1924 226.478C22.672 226.532 22.1459 226.469 21.6527 226.295C21.159 226.122 20.7097 225.841 20.3373 225.474C18.5335 223.963 16.9682 222.188 15.6952 220.21C14.3579 218.539 13.4139 216.588 12.9317 214.503C12.4725 211.914 13.2319 209.321 14.315 206.883Z" fill="#845B5B"/>
</g>
<g style="mix-blend-mode:multiply" opacity="0.33">
<path d="M33.2329 228.188C33.9908 228.188 34.6048 227.574 34.6048 226.816C34.6048 226.059 33.9908 225.445 33.2329 225.445C32.4751 225.445 31.8606 226.059 31.8606 226.816C31.8606 227.574 32.4751 228.188 33.2329 228.188Z" fill="#845B5B"/>
</g>
<g style="mix-blend-mode:multiply" opacity="0.33">
<path d="M29.6619 228.272C30.1865 228.272 30.6122 227.847 30.6122 227.322C30.6122 226.798 30.1865 226.373 29.6619 226.373C29.1373 226.373 28.7116 226.798 28.7116 227.322C28.7116 227.847 29.1373 228.272 29.6619 228.272Z" fill="#845B5B"/>
</g>
<g style="mix-blend-mode:multiply" opacity="0.33">
<path d="M36.475 226.403C36.9504 226.403 37.3359 226.017 37.3359 225.542C37.3359 225.066 36.9504 224.681 36.475 224.681C35.9991 224.681 35.6136 225.066 35.6136 225.542C35.6136 226.017 35.9991 226.403 36.475 226.403Z" fill="#845B5B"/>
</g>
<g style="mix-blend-mode:multiply" opacity="0.33">
<path d="M26.6563 228.296C26.9973 228.296 27.2734 228.02 27.2734 227.679C27.2734 227.339 26.9973 227.063 26.6563 227.063C26.3153 227.063 26.0391 227.339 26.0391 227.679C26.0391 228.02 26.3153 228.296 26.6563 228.296Z" fill="#845B5B"/>
</g>
<g style="mix-blend-mode:multiply" opacity="0.33">
<path d="M39.1952 225.009C39.4033 225.009 39.5717 224.84 39.5717 224.632C39.5717 224.424 39.4033 224.256 39.1952 224.256C38.987 224.256 38.8186 224.424 38.8186 224.632C38.8186 224.84 38.987 225.009 39.1952 225.009Z" fill="#845B5B"/>
</g>
<g style="mix-blend-mode:multiply" opacity="0.33">
<path d="M11.6132 207.133C12.1011 207.133 12.4971 206.737 12.4971 206.249C12.4971 205.761 12.1011 205.366 11.6132 205.366C11.1247 205.366 10.7293 205.761 10.7293 206.249C10.7293 206.737 11.1247 207.133 11.6132 207.133Z" fill="#845B5B"/>
</g>
<g style="mix-blend-mode:multiply" opacity="0.33">
<path d="M35.6754 196.802C36.1346 196.802 36.507 196.43 36.507 195.971C36.507 195.513 36.1346 195.14 35.6754 195.14C35.2162 195.14 34.8438 195.513 34.8438 195.971C34.8438 196.43 35.2162 196.802 35.6754 196.802Z" fill="#845B5B"/>
</g>
<g style="mix-blend-mode:multiply" opacity="0.33">
<path d="M41.0806 200.818C41.4964 200.818 41.8337 200.481 41.8337 200.065C41.8337 199.649 41.4964 199.313 41.0806 199.313C40.6648 199.313 40.3275 199.649 40.3275 200.065C40.3275 200.481 40.6648 200.818 41.0806 200.818Z" fill="#845B5B"/>
</g>
<g style="mix-blend-mode:multiply" opacity="0.33">
<path d="M41.6988 202.527C41.8808 202.527 42.0282 202.38 42.0282 202.198C42.0282 202.016 41.8808 201.868 41.6988 201.868C41.5168 201.868 41.3693 202.016 41.3693 202.198C41.3693 202.38 41.5168 202.527 41.6988 202.527Z" fill="#845B5B"/>
</g>
<path d="M30.7001 215.034C31.6629 215.034 32.4432 214.254 32.4432 213.291C32.4432 212.33 31.6629 211.549 30.7001 211.549C29.7372 211.549 28.9569 212.33 28.9569 213.291C28.9569 214.254 29.7372 215.034 30.7001 215.034Z" fill="#845B5B"/>
<path d="M25.0218 209.65C26.707 209.65 28.0725 208.285 28.0725 206.601C28.0725 204.917 26.707 203.552 25.0218 203.552C23.3367 203.552 21.9712 204.917 21.9712 206.601C21.9712 208.285 23.3367 209.65 25.0218 209.65Z" fill="#845B5B"/>
<g style="mix-blend-mode:multiply" opacity="0.33">
<g style="mix-blend-mode:multiply" opacity="0.33">
<path d="M302.543 120.09H100.317C93.5767 120.09 88.1129 125.55 88.1129 132.285V147.51C88.1129 154.245 93.5767 159.705 100.317 159.705H302.543C309.283 159.705 314.747 154.245 314.747 147.51V132.285C314.747 125.55 309.283 120.09 302.543 120.09Z" fill="#4E4E4E"/>
<path d="M302.543 120.09H100.317C93.5767 120.09 88.1129 125.55 88.1129 132.285V147.51C88.1129 154.245 93.5767 159.705 100.317 159.705H302.543C309.283 159.705 314.747 154.245 314.747 147.51V132.285C314.747 125.55 309.283 120.09 302.543 120.09Z" stroke="black" stroke-width="1.66667" stroke-linecap="round" stroke-linejoin="round"/>
</g>
<g style="mix-blend-mode:multiply" opacity="0.33">
<path d="M302.543 120.09H100.317C93.5767 120.09 88.1129 125.55 88.1129 132.285V147.51C88.1129 154.245 93.5767 159.705 100.317 159.705H302.543C309.283 159.705 314.747 154.245 314.747 147.51V132.285C314.747 125.55 309.283 120.09 302.543 120.09Z" fill="#4E4E4E"/>
</g>
<g style="mix-blend-mode:multiply" opacity="0.17">
<path d="M100.316 120.09H302.543C305.779 120.09 308.883 121.375 311.172 123.662C313.461 125.949 314.746 129.051 314.746 132.285V150.088C314.746 152.063 313.961 153.958 312.564 155.354C311.166 156.75 309.271 157.535 307.295 157.535H95.5659C93.5895 157.535 91.6941 156.75 90.2966 155.354C88.8992 153.958 88.1136 152.063 88.1136 150.088V132.285C88.1136 129.051 89.3997 125.949 91.6883 123.662C93.9765 121.375 97.0805 120.09 100.317 120.09H100.316Z" fill="#4E4E4E"/>
</g>
<g style="mix-blend-mode:multiply" opacity="0.33">
<path d="M302.543 120.09H100.317C93.5767 120.09 88.1129 125.55 88.1129 132.285V147.51C88.1129 154.245 93.5767 159.705 100.317 159.705H302.543C309.283 159.705 314.747 154.245 314.747 147.51V132.285C314.747 125.55 309.283 120.09 302.543 120.09Z" fill="#4E4E4E"/>
<path d="M302.543 120.09H100.317C93.5767 120.09 88.1129 125.55 88.1129 132.285V147.51C88.1129 154.245 93.5767 159.705 100.317 159.705H302.543C309.283 159.705 314.747 154.245 314.747 147.51V132.285C314.747 125.55 309.283 120.09 302.543 120.09Z" stroke="#46505C" stroke-width="6.66667" stroke-linecap="round" stroke-linejoin="round"/>
</g>
<g style="mix-blend-mode:multiply" opacity="0.33">
<path d="M299.057 154.989V124.553H103.803V154.989H299.057Z" fill="#4E4E4E"/>
</g>
<g style="mix-blend-mode:multiply" opacity="0.33">
<path d="M299.057 154.989V124.553H103.803V154.989H299.057Z" fill="#4E4E4E"/>
<path d="M299.057 154.989V124.553H103.803V154.989H299.057Z" stroke="#46505C" stroke-width="1.66667" stroke-linecap="round" stroke-linejoin="round"/>
</g>
<g style="mix-blend-mode:multiply" opacity="0.33">
<path d="M302.544 159.705H100.318C93.5777 159.705 88.114 165.165 88.114 171.9V297.337C88.114 304.072 93.5777 309.532 100.318 309.532H302.544C309.284 309.532 314.748 304.072 314.748 297.337V171.9C314.748 165.165 309.284 159.705 302.544 159.705Z" fill="#4E4E4E"/>
</g>
<g style="mix-blend-mode:multiply" opacity="0.33">
<path d="M311.261 297.336V171.9C311.261 167.089 307.358 163.189 302.545 163.189H100.318C95.5035 163.189 91.6008 167.089 91.6008 171.9V297.336C91.6008 302.148 95.5035 306.048 100.318 306.048H302.545C307.358 306.048 311.261 302.148 311.261 297.336Z" fill="#4E4E4E"/>
<path d="M311.261 297.336V171.9C311.261 167.089 307.358 163.189 302.545 163.189H100.318C95.5035 163.189 91.6008 167.089 91.6008 171.9V297.336C91.6008 302.148 95.5035 306.048 100.318 306.048H302.545C307.358 306.048 311.261 302.148 311.261 297.336Z" stroke="#E6F3FF" stroke-width="3.33333" stroke-miterlimit="10"/>
</g>
<g style="mix-blend-mode:multiply" opacity="0.33">
<path d="M302.544 159.705H100.318C93.5777 159.705 88.114 165.165 88.114 171.9V297.337C88.114 304.072 93.5777 309.532 100.318 309.532H302.544C309.284 309.532 314.748 304.072 314.748 297.337V171.9C314.748 165.165 309.284 159.705 302.544 159.705Z" fill="#4E4E4E"/>
<path d="M302.544 159.705H100.318C93.5777 159.705 88.114 165.165 88.114 171.9V297.337C88.114 304.072 93.5777 309.532 100.318 309.532H302.544C309.284 309.532 314.748 304.072 314.748 297.337V171.9C314.748 165.165 309.284 159.705 302.544 159.705Z" stroke="#46505C" stroke-width="6.66667" stroke-linecap="round" stroke-linejoin="round"/>
</g>
<g style="mix-blend-mode:multiply" opacity="0.33">
<path d="M299.057 171.396H103.803C102.359 171.396 101.188 172.565 101.188 174.008V248.922C101.188 250.365 102.359 251.535 103.803 251.535H299.057C300.501 251.535 301.672 250.365 301.672 248.922V174.008C301.672 172.565 300.501 171.396 299.057 171.396Z" fill="#4E4E4E"/>
</g>
<g style="mix-blend-mode:multiply" opacity="0.33">
<path d="M139.615 231.936H129.156C128.674 231.936 128.284 232.326 128.284 232.807V243.26C128.284 243.741 128.674 244.131 129.156 244.131H139.615C140.097 244.131 140.487 243.741 140.487 243.26V232.807C140.487 232.326 140.097 231.936 139.615 231.936Z" fill="#4E4E4E"/>
<path d="M139.615 231.936H129.156C128.674 231.936 128.284 232.326 128.284 232.807V243.26C128.284 243.741 128.674 244.131 129.156 244.131H139.615C140.097 244.131 140.487 243.741 140.487 243.26V232.807C140.487 232.326 140.097 231.936 139.615 231.936Z" stroke="#626C84" stroke-width="1.66667" stroke-linecap="round" stroke-linejoin="round"/>
</g>
<g style="mix-blend-mode:multiply" opacity="0.33">
<path d="M120.753 231.936H110.293C109.812 231.936 109.422 232.326 109.422 232.807V243.26C109.422 243.741 109.812 244.131 110.293 244.131H120.753C121.235 244.131 121.625 243.741 121.625 243.26V232.807C121.625 232.326 121.235 231.936 120.753 231.936Z" fill="#4E4E4E"/>
<path d="M120.753 231.936H110.293C109.812 231.936 109.422 232.326 109.422 232.807V243.26C109.422 243.741 109.812 244.131 110.293 244.131H120.753C121.235 244.131 121.625 243.741 121.625 243.26V232.807C121.625 232.326 121.235 231.936 120.753 231.936Z" stroke="#626C84" stroke-width="1.66667" stroke-linecap="round" stroke-linejoin="round"/>
</g>
<g style="mix-blend-mode:multiply" opacity="0.33">
<path d="M233.923 231.936H148.017C147.536 231.936 147.146 232.326 147.146 232.807V243.26C147.146 243.741 147.536 244.131 148.017 244.131H233.923C234.404 244.131 234.795 243.741 234.795 243.26V232.807C234.795 232.326 234.404 231.936 233.923 231.936Z" fill="#4E4E4E"/>
<path d="M233.923 231.936H148.017C147.536 231.936 147.146 232.326 147.146 232.807V243.26C147.146 243.741 147.536 244.131 148.017 244.131H233.923C234.404 244.131 234.795 243.741 234.795 243.26V232.807C234.795 232.326 234.404 231.936 233.923 231.936Z" stroke="#626C84" stroke-width="1.66667" stroke-linecap="round" stroke-linejoin="round"/>
</g>
<g style="mix-blend-mode:multiply" opacity="0.33">
<path d="M252.785 231.936H242.325C241.844 231.936 241.453 232.326 241.453 232.807V243.26C241.453 243.741 241.844 244.131 242.325 244.131H252.785C253.266 244.131 253.657 243.741 253.657 243.26V232.807C253.657 232.326 253.266 231.936 252.785 231.936Z" fill="#4E4E4E"/>
<path d="M252.785 231.936H242.325C241.844 231.936 241.453 232.326 241.453 232.807V243.26C241.453 243.741 241.844 244.131 242.325 244.131H252.785C253.266 244.131 253.657 243.741 253.657 243.26V232.807C253.657 232.326 253.266 231.936 252.785 231.936Z" stroke="#626C84" stroke-width="1.66667" stroke-linecap="round" stroke-linejoin="round"/>
</g>
<g style="mix-blend-mode:multiply" opacity="0.33">
<path d="M280.364 238.796H273.39C272.909 238.796 272.519 239.186 272.519 239.667V243.26C272.519 243.741 272.909 244.131 273.39 244.131H280.364C280.845 244.131 281.235 243.741 281.235 243.26V239.667C281.235 239.186 280.845 238.796 280.364 238.796Z" fill="#4E4E4E"/>
<path d="M280.364 238.796H273.39C272.909 238.796 272.519 239.186 272.519 239.667V243.26C272.519 243.741 272.909 244.131 273.39 244.131H280.364C280.845 244.131 281.235 243.741 281.235 243.26V239.667C281.235 239.186 280.845 238.796 280.364 238.796Z" stroke="#626C84" stroke-width="1.66667" stroke-linecap="round" stroke-linejoin="round"/>
</g>
<g style="mix-blend-mode:multiply" opacity="0.33">
<path d="M280.364 231.936H273.39C272.909 231.936 272.519 232.326 272.519 232.807V236.4C272.519 236.881 272.909 237.272 273.39 237.272H280.364C280.845 237.272 281.235 236.881 281.235 236.4V232.807C281.235 232.326 280.845 231.936 280.364 231.936Z" fill="#4E4E4E"/>
<path d="M280.364 231.936H273.39C272.909 231.936 272.519 232.326 272.519 232.807V236.4C272.519 236.881 272.909 237.272 273.39 237.272H280.364C280.845 237.272 281.235 236.881 281.235 236.4V232.807C281.235 232.326 280.845 231.936 280.364 231.936Z" stroke="#626C84" stroke-width="1.66667" stroke-linecap="round" stroke-linejoin="round"/>
</g>
<g style="mix-blend-mode:multiply" opacity="0.33">
<path d="M292.567 238.796H285.594C285.112 238.796 284.722 239.186 284.722 239.667V243.26C284.722 243.741 285.112 244.131 285.594 244.131H292.567C293.049 244.131 293.439 243.741 293.439 243.26V239.667C293.439 239.186 293.049 238.796 292.567 238.796Z" fill="#4E4E4E"/>
<path d="M292.567 238.796H285.594C285.112 238.796 284.722 239.186 284.722 239.667V243.26C284.722 243.741 285.112 244.131 285.594 244.131H292.567C293.049 244.131 293.439 243.741 293.439 243.26V239.667C293.439 239.186 293.049 238.796 292.567 238.796Z" stroke="#626C84" stroke-width="1.66667" stroke-linecap="round" stroke-linejoin="round"/>
</g>
<g style="mix-blend-mode:multiply" opacity="0.33">
<path d="M268.161 238.796H261.187C260.706 238.796 260.316 239.186 260.316 239.667V243.26C260.316 243.741 260.706 244.131 261.187 244.131H268.161C268.642 244.131 269.032 243.741 269.032 243.26V239.667C269.032 239.186 268.642 238.796 268.161 238.796Z" fill="#4E4E4E"/>
<path d="M268.161 238.796H261.187C260.706 238.796 260.316 239.186 260.316 239.667V243.26C260.316 243.741 260.706 244.131 261.187 244.131H268.161C268.642 244.131 269.032 243.741 269.032 243.26V239.667C269.032 239.186 268.642 238.796 268.161 238.796Z" stroke="#626C84" stroke-width="1.66667" stroke-linecap="round" stroke-linejoin="round"/>
</g>
<g style="mix-blend-mode:multiply" opacity="0.33">
<path d="M137.872 214.583H110.293C109.812 214.583 109.422 214.973 109.422 215.455V225.907C109.422 226.388 109.812 226.779 110.293 226.779H137.872C138.353 226.779 138.744 226.388 138.744 225.907V215.455C138.744 214.973 138.353 214.583 137.872 214.583Z" fill="#4E4E4E"/>
<path d="M137.872 214.583H110.293C109.812 214.583 109.422 214.973 109.422 215.455V225.907C109.422 226.388 109.812 226.779 110.293 226.779H137.872C138.353 226.779 138.744 226.388 138.744 225.907V215.455C138.744 214.973 138.353 214.583 137.872 214.583Z" stroke="#626C84" stroke-width="1.66667" stroke-linecap="round" stroke-linejoin="round"/>
</g>
<g style="mix-blend-mode:multiply" opacity="0.33">
<path d="M156.891 214.583H146.431C145.949 214.583 145.559 214.973 145.559 215.455V225.907C145.559 226.388 145.949 226.779 146.431 226.779H156.891C157.372 226.779 157.763 226.388 157.763 225.907V215.455C157.763 214.973 157.372 214.583 156.891 214.583Z" fill="#4E4E4E"/>
<path d="M156.891 214.583H146.431C145.949 214.583 145.559 214.973 145.559 215.455V225.907C145.559 226.388 145.949 226.779 146.431 226.779H156.891C157.372 226.779 157.763 226.388 157.763 225.907V215.455C157.763 214.973 157.372 214.583 156.891 214.583Z" stroke="#626C84" stroke-width="1.66667" stroke-linecap="round" stroke-linejoin="round"/>
</g>
<g style="mix-blend-mode:multiply" opacity="0.33">
<path d="M175.753 214.583H165.293C164.812 214.583 164.422 214.973 164.422 215.455V225.907C164.422 226.388 164.812 226.779 165.293 226.779H175.753C176.235 226.779 176.625 226.388 176.625 225.907V215.455C176.625 214.973 176.235 214.583 175.753 214.583Z" fill="#4E4E4E"/>
<path d="M175.753 214.583H165.293C164.812 214.583 164.422 214.973 164.422 215.455V225.907C164.422 226.388 164.812 226.779 165.293 226.779H175.753C176.235 226.779 176.625 226.388 176.625 225.907V215.455C176.625 214.973 176.235 214.583 175.753 214.583Z" stroke="#626C84" stroke-width="1.66667" stroke-linecap="round" stroke-linejoin="round"/>
</g>
<g style="mix-blend-mode:multiply" opacity="0.33">
<path d="M194.615 214.583H184.155C183.673 214.583 183.283 214.973 183.283 215.455V225.907C183.283 226.388 183.673 226.779 184.155 226.779H194.615C195.096 226.779 195.486 226.388 195.486 225.907V215.455C195.486 214.973 195.096 214.583 194.615 214.583Z" fill="#4E4E4E"/>
<path d="M194.615 214.583H184.155C183.673 214.583 183.283 214.973 183.283 215.455V225.907C183.283 226.388 183.673 226.779 184.155 226.779H194.615C195.096 226.779 195.486 226.388 195.486 225.907V215.455C195.486 214.973 195.096 214.583 194.615 214.583Z" stroke="#626C84" stroke-width="1.66667" stroke-linecap="round" stroke-linejoin="round"/>
</g>
<g style="mix-blend-mode:multiply" opacity="0.33">
<path d="M213.476 214.583H203.016C202.535 214.583 202.145 214.973 202.145 215.455V225.907C202.145 226.388 202.535 226.779 203.016 226.779H213.476C213.958 226.779 214.348 226.388 214.348 225.907V215.455C214.348 214.973 213.958 214.583 213.476 214.583Z" fill="#4E4E4E"/>
<path d="M213.476 214.583H203.016C202.535 214.583 202.145 214.973 202.145 215.455V225.907C202.145 226.388 202.535 226.779 203.016 226.779H213.476C213.958 226.779 214.348 226.388 214.348 225.907V215.455C214.348 214.973 213.958 214.583 213.476 214.583Z" stroke="#626C84" stroke-width="1.66667" stroke-linecap="round" stroke-linejoin="round"/>
</g>
<g style="mix-blend-mode:multiply" opacity="0.33">
<path d="M232.337 214.583H221.877C221.396 214.583 221.006 214.973 221.006 215.455V225.907C221.006 226.388 221.396 226.779 221.877 226.779H232.337C232.819 226.779 233.209 226.388 233.209 225.907V215.455C233.209 214.973 232.819 214.583 232.337 214.583Z" fill="#4E4E4E"/>
<path d="M232.337 214.583H221.877C221.396 214.583 221.006 214.973 221.006 215.455V225.907C221.006 226.388 221.396 226.779 221.877 226.779H232.337C232.819 226.779 233.209 226.388 233.209 225.907V215.455C233.209 214.973 232.819 214.583 232.337 214.583Z" stroke="#626C84" stroke-width="1.66667" stroke-linecap="round" stroke-linejoin="round"/>
</g>
<g style="mix-blend-mode:multiply" opacity="0.33">
<path d="M251.199 214.583H240.739C240.258 214.583 239.868 214.973 239.868 215.455V225.907C239.868 226.388 240.258 226.779 240.739 226.779H251.199C251.681 226.779 252.071 226.388 252.071 225.907V215.455C252.071 214.973 251.681 214.583 251.199 214.583Z" fill="#4E4E4E"/>
<path d="M251.199 214.583H240.739C240.258 214.583 239.868 214.973 239.868 215.455V225.907C239.868 226.388 240.258 226.779 240.739 226.779H251.199C251.681 226.779 252.071 226.388 252.071 225.907V215.455C252.071 214.973 251.681 214.583 251.199 214.583Z" stroke="#626C84" stroke-width="1.66667" stroke-linecap="round" stroke-linejoin="round"/>
</g>
<g style="mix-blend-mode:multiply" opacity="0.33">
<path d="M292.567 214.583H261.187C260.706 214.583 260.316 214.973 260.316 215.455V225.907C260.316 226.388 260.706 226.779 261.187 226.779H292.567C293.049 226.779 293.439 226.388 293.439 225.907V215.455C293.439 214.973 293.049 214.583 292.567 214.583Z" fill="#4E4E4E"/>
<path d="M292.567 214.583H261.187C260.706 214.583 260.316 214.973 260.316 215.455V225.907C260.316 226.388 260.706 226.779 261.187 226.779H292.567C293.049 226.779 293.439 226.388 293.439 225.907V215.455C293.439 214.973 293.049 214.583 292.567 214.583Z" stroke="#626C84" stroke-width="1.66667" stroke-linecap="round" stroke-linejoin="round"/>
</g>
<g style="mix-blend-mode:multiply" opacity="0.33">
<path d="M150.075 196.744H139.615C139.134 196.744 138.744 197.134 138.744 197.615V208.068C138.744 208.549 139.134 208.939 139.615 208.939H150.075C150.557 208.939 150.947 208.549 150.947 208.068V197.615C150.947 197.134 150.557 196.744 150.075 196.744Z" fill="#4E4E4E"/>
<path d="M150.075 196.744H139.615C139.134 196.744 138.744 197.134 138.744 197.615V208.068C138.744 208.549 139.134 208.939 139.615 208.939H150.075C150.557 208.939 150.947 208.549 150.947 208.068V197.615C150.947 197.134 150.557 196.744 150.075 196.744Z" stroke="#626C84" stroke-width="1.66667" stroke-linecap="round" stroke-linejoin="round"/>
</g>
<g style="mix-blend-mode:multiply" opacity="0.33">
<path d="M131.213 196.744H110.293C109.812 196.744 109.422 197.134 109.422 197.615V208.068C109.422 208.549 109.812 208.939 110.293 208.939H131.213C131.695 208.939 132.085 208.549 132.085 208.068V197.615C132.085 197.134 131.695 196.744 131.213 196.744Z" fill="#4E4E4E"/>
<path d="M131.213 196.744H110.293C109.812 196.744 109.422 197.134 109.422 197.615V208.068C109.422 208.549 109.812 208.939 110.293 208.939H131.213C131.695 208.939 132.085 208.549 132.085 208.068V197.615C132.085 197.134 131.695 196.744 131.213 196.744Z" stroke="#626C84" stroke-width="1.66667" stroke-linecap="round" stroke-linejoin="round"/>
</g>
<g style="mix-blend-mode:multiply" opacity="0.33">
<path d="M168.937 196.744H158.477C157.996 196.744 157.605 197.134 157.605 197.615V208.068C157.605 208.549 157.996 208.939 158.477 208.939H168.937C169.418 208.939 169.809 208.549 169.809 208.068V197.615C169.809 197.134 169.418 196.744 168.937 196.744Z" fill="#4E4E4E"/>
<path d="M168.937 196.744H158.477C157.996 196.744 157.605 197.134 157.605 197.615V208.068C157.605 208.549 157.996 208.939 158.477 208.939H168.937C169.418 208.939 169.809 208.549 169.809 208.068V197.615C169.809 197.134 169.418 196.744 168.937 196.744Z" stroke="#626C84" stroke-width="1.66667" stroke-linecap="round" stroke-linejoin="round"/>
</g>
<g style="mix-blend-mode:multiply" opacity="0.33">
<path d="M187.799 196.744H177.339C176.857 196.744 176.467 197.134 176.467 197.615V208.068C176.467 208.549 176.857 208.939 177.339 208.939H187.799C188.28 208.939 188.67 208.549 188.67 208.068V197.615C188.67 197.134 188.28 196.744 187.799 196.744Z" fill="#4E4E4E"/>
<path d="M187.799 196.744H177.339C176.857 196.744 176.467 197.134 176.467 197.615V208.068C176.467 208.549 176.857 208.939 177.339 208.939H187.799C188.28 208.939 188.67 208.549 188.67 208.068V197.615C188.67 197.134 188.28 196.744 187.799 196.744Z" stroke="#626C84" stroke-width="1.66667" stroke-linecap="round" stroke-linejoin="round"/>
</g>
<g style="mix-blend-mode:multiply" opacity="0.33">
<path d="M206.66 196.744H196.2C195.719 196.744 195.328 197.134 195.328 197.615V208.068C195.328 208.549 195.719 208.939 196.2 208.939H206.66C207.141 208.939 207.532 208.549 207.532 208.068V197.615C207.532 197.134 207.141 196.744 206.66 196.744Z" fill="#4E4E4E"/>
<path d="M206.66 196.744H196.2C195.719 196.744 195.328 197.134 195.328 197.615V208.068C195.328 208.549 195.719 208.939 196.2 208.939H206.66C207.141 208.939 207.532 208.549 207.532 208.068V197.615C207.532 197.134 207.141 196.744 206.66 196.744Z" stroke="#626C84" stroke-width="1.66667" stroke-linecap="round" stroke-linejoin="round"/>
</g>
<g style="mix-blend-mode:multiply" opacity="0.33">
<path d="M225.522 196.744H215.062C214.581 196.744 214.19 197.134 214.19 197.615V208.068C214.19 208.549 214.581 208.939 215.062 208.939H225.522C226.003 208.939 226.394 208.549 226.394 208.068V197.615C226.394 197.134 226.003 196.744 225.522 196.744Z" fill="#4E4E4E"/>
<path d="M225.522 196.744H215.062C214.581 196.744 214.19 197.134 214.19 197.615V208.068C214.19 208.549 214.581 208.939 215.062 208.939H225.522C226.003 208.939 226.394 208.549 226.394 208.068V197.615C226.394 197.134 226.003 196.744 225.522 196.744Z" stroke="#626C84" stroke-width="1.66667" stroke-linecap="round" stroke-linejoin="round"/>
</g>
<g style="mix-blend-mode:multiply" opacity="0.33">
<path d="M244.384 196.744H233.924C233.443 196.744 233.052 197.134 233.052 197.615V208.068C233.052 208.549 233.443 208.939 233.924 208.939H244.384C244.865 208.939 245.256 208.549 245.256 208.068V197.615C245.256 197.134 244.865 196.744 244.384 196.744Z" fill="#4E4E4E"/>
<path d="M244.384 196.744H233.924C233.443 196.744 233.052 197.134 233.052 197.615V208.068C233.052 208.549 233.443 208.939 233.924 208.939H244.384C244.865 208.939 245.256 208.549 245.256 208.068V197.615C245.256 197.134 244.865 196.744 244.384 196.744Z" stroke="#626C84" stroke-width="1.66667" stroke-linecap="round" stroke-linejoin="round"/>
</g>
<g style="mix-blend-mode:multiply" opacity="0.33">
<path d="M263.245 196.744H252.785C252.303 196.744 251.913 197.134 251.913 197.615V208.068C251.913 208.549 252.303 208.939 252.785 208.939H263.245C263.726 208.939 264.117 208.549 264.117 208.068V197.615C264.117 197.134 263.726 196.744 263.245 196.744Z" fill="#4E4E4E"/>
<path d="M263.245 196.744H252.785C252.303 196.744 251.913 197.134 251.913 197.615V208.068C251.913 208.549 252.303 208.939 252.785 208.939H263.245C263.726 208.939 264.117 208.549 264.117 208.068V197.615C264.117 197.134 263.726 196.744 263.245 196.744Z" stroke="#626C84" stroke-width="1.66667" stroke-linecap="round" stroke-linejoin="round"/>
</g>
<g style="mix-blend-mode:multiply" opacity="0.33">
<path d="M292.567 196.744H271.647C271.166 196.744 270.776 197.134 270.776 197.615V208.068C270.776 208.549 271.166 208.939 271.647 208.939H292.567C293.049 208.939 293.439 208.549 293.439 208.068V197.615C293.439 197.134 293.049 196.744 292.567 196.744Z" fill="#4E4E4E"/>
<path d="M292.567 196.744H271.647C271.166 196.744 270.776 197.134 270.776 197.615V208.068C270.776 208.549 271.166 208.939 271.647 208.939H292.567C293.049 208.939 293.439 208.549 293.439 208.068V197.615C293.439 197.134 293.049 196.744 292.567 196.744Z" stroke="#626C84" stroke-width="1.66667" stroke-linecap="round" stroke-linejoin="round"/>
</g>
<g style="mix-blend-mode:multiply" opacity="0.33">
<path d="M139.844 179.671H129.384C128.903 179.671 128.513 180.061 128.513 180.542V190.995C128.513 191.476 128.903 191.866 129.384 191.866H139.844C140.326 191.866 140.716 191.476 140.716 190.995V180.542C140.716 180.061 140.326 179.671 139.844 179.671Z" fill="#4E4E4E"/>
<path d="M139.844 179.671H129.384C128.903 179.671 128.513 180.061 128.513 180.542V190.995C128.513 191.476 128.903 191.866 129.384 191.866H139.844C140.326 191.866 140.716 191.476 140.716 190.995V180.542C140.716 180.061 140.326 179.671 139.844 179.671Z" stroke="#626C84" stroke-width="1.66667" stroke-linecap="round" stroke-linejoin="round"/>
</g>
<g style="mix-blend-mode:multiply" opacity="0.33">
<path d="M120.753 179.671H110.293C109.812 179.671 109.422 180.061 109.422 180.542V190.995C109.422 191.476 109.812 191.866 110.293 191.866H120.753C121.235 191.866 121.625 191.476 121.625 190.995V180.542C121.625 180.061 121.235 179.671 120.753 179.671Z" fill="#4E4E4E"/>
<path d="M120.753 179.671H110.293C109.812 179.671 109.422 180.061 109.422 180.542V190.995C109.422 191.476 109.812 191.866 110.293 191.866H120.753C121.235 191.866 121.625 191.476 121.625 190.995V180.542C121.625 180.061 121.235 179.671 120.753 179.671Z" stroke="#626C84" stroke-width="1.66667" stroke-linecap="round" stroke-linejoin="round"/>
</g>
<g style="mix-blend-mode:multiply" opacity="0.33">
<path d="M158.934 179.671H148.474C147.993 179.671 147.603 180.061 147.603 180.542V190.995C147.603 191.476 147.993 191.866 148.474 191.866H158.934C159.416 191.866 159.806 191.476 159.806 190.995V180.542C159.806 180.061 159.416 179.671 158.934 179.671Z" fill="#4E4E4E"/>
<path d="M158.934 179.671H148.474C147.993 179.671 147.603 180.061 147.603 180.542V190.995C147.603 191.476 147.993 191.866 148.474 191.866H158.934C159.416 191.866 159.806 191.476 159.806 190.995V180.542C159.806 180.061 159.416 179.671 158.934 179.671Z" stroke="#626C84" stroke-width="1.66667" stroke-linecap="round" stroke-linejoin="round"/>
</g>
<g style="mix-blend-mode:multiply" opacity="0.33">
<path d="M178.024 179.671H167.564C167.083 179.671 166.693 180.061 166.693 180.542V190.995C166.693 191.476 167.083 191.866 167.564 191.866H178.024C178.506 191.866 178.896 191.476 178.896 190.995V180.542C178.896 180.061 178.506 179.671 178.024 179.671Z" fill="#4E4E4E"/>
<path d="M178.024 179.671H167.564C167.083 179.671 166.693 180.061 166.693 180.542V190.995C166.693 191.476 167.083 191.866 167.564 191.866H178.024C178.506 191.866 178.896 191.476 178.896 190.995V180.542C178.896 180.061 178.506 179.671 178.024 179.671Z" stroke="#626C84" stroke-width="1.66667" stroke-linecap="round" stroke-linejoin="round"/>
</g>
<g style="mix-blend-mode:multiply" opacity="0.33">
<path d="M197.115 179.671H186.655C186.174 179.671 185.783 180.061 185.783 180.542V190.995C185.783 191.476 186.174 191.866 186.655 191.866H197.115C197.597 191.866 197.987 191.476 197.987 190.995V180.542C197.987 180.061 197.597 179.671 197.115 179.671Z" fill="#4E4E4E"/>
<path d="M197.115 179.671H186.655C186.174 179.671 185.783 180.061 185.783 180.542V190.995C185.783 191.476 186.174 191.866 186.655 191.866H197.115C197.597 191.866 197.987 191.476 197.987 190.995V180.542C197.987 180.061 197.597 179.671 197.115 179.671Z" stroke="#626C84" stroke-width="1.66667" stroke-linecap="round" stroke-linejoin="round"/>
</g>
<g style="mix-blend-mode:multiply" opacity="0.33">
<path d="M216.206 179.671H205.746C205.264 179.671 204.874 180.061 204.874 180.542V190.995C204.874 191.476 205.264 191.866 205.746 191.866H216.206C216.687 191.866 217.077 191.476 217.077 190.995V180.542C217.077 180.061 216.687 179.671 216.206 179.671Z" fill="#4E4E4E"/>
<path d="M216.206 179.671H205.746C205.264 179.671 204.874 180.061 204.874 180.542V190.995C204.874 191.476 205.264 191.866 205.746 191.866H216.206C216.687 191.866 217.077 191.476 217.077 190.995V180.542C217.077 180.061 216.687 179.671 216.206 179.671Z" stroke="#626C84" stroke-width="1.66667" stroke-linecap="round" stroke-linejoin="round"/>
</g>
<g style="mix-blend-mode:multiply" opacity="0.33">
<path d="M235.296 179.671H224.836C224.354 179.671 223.964 180.061 223.964 180.542V190.995C223.964 191.476 224.354 191.866 224.836 191.866H235.296C235.777 191.866 236.168 191.476 236.168 190.995V180.542C236.168 180.061 235.777 179.671 235.296 179.671Z" fill="#4E4E4E"/>
<path d="M235.296 179.671H224.836C224.354 179.671 223.964 180.061 223.964 180.542V190.995C223.964 191.476 224.354 191.866 224.836 191.866H235.296C235.777 191.866 236.168 191.476 236.168 190.995V180.542C236.168 180.061 235.777 179.671 235.296 179.671Z" stroke="#626C84" stroke-width="1.66667" stroke-linecap="round" stroke-linejoin="round"/>
</g>
<g style="mix-blend-mode:multiply" opacity="0.33">
<path d="M254.386 179.671H243.926C243.445 179.671 243.055 180.061 243.055 180.542V190.995C243.055 191.476 243.445 191.866 243.926 191.866H254.386C254.868 191.866 255.258 191.476 255.258 190.995V180.542C255.258 180.061 254.868 179.671 254.386 179.671Z" fill="#4E4E4E"/>
<path d="M254.386 179.671H243.926C243.445 179.671 243.055 180.061 243.055 180.542V190.995C243.055 191.476 243.445 191.866 243.926 191.866H254.386C254.868 191.866 255.258 191.476 255.258 190.995V180.542C255.258 180.061 254.868 179.671 254.386 179.671Z" stroke="#626C84" stroke-width="1.66667" stroke-linecap="round" stroke-linejoin="round"/>
</g>
<g style="mix-blend-mode:multiply" opacity="0.33">
<path d="M273.477 179.671H263.017C262.535 179.671 262.145 180.061 262.145 180.542V190.995C262.145 191.476 262.535 191.866 263.017 191.866H273.477C273.958 191.866 274.349 191.476 274.349 190.995V180.542C274.349 180.061 273.958 179.671 273.477 179.671Z" fill="#4E4E4E"/>
<path d="M273.477 179.671H263.017C262.535 179.671 262.145 180.061 262.145 180.542V190.995C262.145 191.476 262.535 191.866 263.017 191.866H273.477C273.958 191.866 274.349 191.476 274.349 190.995V180.542C274.349 180.061 273.958 179.671 273.477 179.671Z" stroke="#626C84" stroke-width="1.66667" stroke-linecap="round" stroke-linejoin="round"/>
</g>
<g style="mix-blend-mode:multiply" opacity="0.33">
<path d="M292.567 179.671H282.107C281.626 179.671 281.235 180.061 281.235 180.542V190.995C281.235 191.476 281.626 191.866 282.107 191.866H292.567C293.049 191.866 293.439 191.476 293.439 190.995V180.542C293.439 180.061 293.049 179.671 292.567 179.671Z" fill="#4E4E4E"/>
<path d="M292.567 179.671H282.107C281.626 179.671 281.235 180.061 281.235 180.542V190.995C281.235 191.476 281.626 191.866 282.107 191.866H292.567C293.049 191.866 293.439 191.476 293.439 190.995V180.542C293.439 180.061 293.049 179.671 292.567 179.671Z" stroke="#626C84" stroke-width="1.66667" stroke-linecap="round" stroke-linejoin="round"/>
</g>
<g style="mix-blend-mode:multiply" opacity="0.33">
<path d="M139.615 231.936H129.156C128.674 231.936 128.284 232.326 128.284 232.807V243.26C128.284 243.741 128.674 244.131 129.156 244.131H139.615C140.097 244.131 140.487 243.741 140.487 243.26V232.807C140.487 232.326 140.097 231.936 139.615 231.936Z" fill="#4E4E4E"/>
</g>
<g style="mix-blend-mode:multiply" opacity="0.33">
<path d="M120.753 231.936H110.293C109.812 231.936 109.422 232.326 109.422 232.807V243.26C109.422 243.741 109.812 244.131 110.293 244.131H120.753C121.235 244.131 121.625 243.741 121.625 243.26V232.807C121.625 232.326 121.235 231.936 120.753 231.936Z" fill="#4E4E4E"/>
</g>
<g style="mix-blend-mode:multiply" opacity="0.33">
<path d="M233.923 231.936H148.017C147.536 231.936 147.146 232.326 147.146 232.807V243.26C147.146 243.741 147.536 244.131 148.017 244.131H233.923C234.404 244.131 234.795 243.741 234.795 243.26V232.807C234.795 232.326 234.404 231.936 233.923 231.936Z" fill="#4E4E4E"/>
</g>
<g style="mix-blend-mode:multiply" opacity="0.33">
<path d="M252.785 231.936H242.325C241.844 231.936 241.453 232.326 241.453 232.807V243.26C241.453 243.741 241.844 244.131 242.325 244.131H252.785C253.266 244.131 253.657 243.741 253.657 243.26V232.807C253.657 232.326 253.266 231.936 252.785 231.936Z" fill="#4E4E4E"/>
</g>
<g style="mix-blend-mode:multiply" opacity="0.33">
<path d="M280.364 238.796H273.39C272.909 238.796 272.519 239.186 272.519 239.667V243.26C272.519 243.741 272.909 244.131 273.39 244.131H280.364C280.845 244.131 281.235 243.741 281.235 243.26V239.667C281.235 239.186 280.845 238.796 280.364 238.796Z" fill="#4E4E4E"/>
</g>
<g style="mix-blend-mode:multiply" opacity="0.33">
<path d="M280.364 231.936H273.39C272.909 231.936 272.519 232.326 272.519 232.807V236.4C272.519 236.881 272.909 237.272 273.39 237.272H280.364C280.845 237.272 281.235 236.881 281.235 236.4V232.807C281.235 232.326 280.845 231.936 280.364 231.936Z" fill="#4E4E4E"/>
</g>
<g style="mix-blend-mode:multiply" opacity="0.33">
<path d="M292.567 238.796H285.594C285.112 238.796 284.722 239.186 284.722 239.667V243.26C284.722 243.741 285.112 244.131 285.594 244.131H292.567C293.049 244.131 293.439 243.741 293.439 243.26V239.667C293.439 239.186 293.049 238.796 292.567 238.796Z" fill="#4E4E4E"/>
</g>
<g style="mix-blend-mode:multiply" opacity="0.33">
<path d="M268.161 238.796H261.187C260.706 238.796 260.316 239.186 260.316 239.667V243.26C260.316 243.741 260.706 244.131 261.187 244.131H268.161C268.642 244.131 269.032 243.741 269.032 243.26V239.667C269.032 239.186 268.642 238.796 268.161 238.796Z" fill="#4E4E4E"/>
</g>
<g style="mix-blend-mode:multiply" opacity="0.33">
<path d="M137.872 214.583H110.293C109.812 214.583 109.422 214.973 109.422 215.455V225.907C109.422 226.388 109.812 226.779 110.293 226.779H137.872C138.353 226.779 138.744 226.388 138.744 225.907V215.455C138.744 214.973 138.353 214.583 137.872 214.583Z" fill="#4E4E4E"/>
</g>
<g style="mix-blend-mode:multiply" opacity="0.33">
<path d="M156.891 214.583H146.431C145.949 214.583 145.559 214.973 145.559 215.455V225.907C145.559 226.388 145.949 226.779 146.431 226.779H156.891C157.372 226.779 157.763 226.388 157.763 225.907V215.455C157.763 214.973 157.372 214.583 156.891 214.583Z" fill="#4E4E4E"/>
</g>
<g style="mix-blend-mode:multiply" opacity="0.33">
<path d="M175.753 214.583H165.293C164.812 214.583 164.422 214.973 164.422 215.455V225.907C164.422 226.388 164.812 226.779 165.293 226.779H175.753C176.235 226.779 176.625 226.388 176.625 225.907V215.455C176.625 214.973 176.235 214.583 175.753 214.583Z" fill="#4E4E4E"/>
</g>
<g style="mix-blend-mode:multiply" opacity="0.33">
<path d="M194.615 214.583H184.155C183.673 214.583 183.283 214.973 183.283 215.455V225.907C183.283 226.388 183.673 226.779 184.155 226.779H194.615C195.096 226.779 195.486 226.388 195.486 225.907V215.455C195.486 214.973 195.096 214.583 194.615 214.583Z" fill="#4E4E4E"/>
</g>
<g style="mix-blend-mode:multiply" opacity="0.33">
<path d="M213.476 214.583H203.016C202.535 214.583 202.145 214.973 202.145 215.455V225.907C202.145 226.388 202.535 226.779 203.016 226.779H213.476C213.958 226.779 214.348 226.388 214.348 225.907V215.455C214.348 214.973 213.958 214.583 213.476 214.583Z" fill="#4E4E4E"/>
</g>
<g style="mix-blend-mode:multiply" opacity="0.33">
<path d="M232.337 214.583H221.877C221.396 214.583 221.006 214.973 221.006 215.455V225.907C221.006 226.388 221.396 226.779 221.877 226.779H232.337C232.819 226.779 233.209 226.388 233.209 225.907V215.455C233.209 214.973 232.819 214.583 232.337 214.583Z" fill="#4E4E4E"/>
</g>
<g style="mix-blend-mode:multiply" opacity="0.33">
<path d="M251.199 214.583H240.739C240.258 214.583 239.868 214.973 239.868 215.455V225.907C239.868 226.388 240.258 226.779 240.739 226.779H251.199C251.681 226.779 252.071 226.388 252.071 225.907V215.455C252.071 214.973 251.681 214.583 251.199 214.583Z" fill="#4E4E4E"/>
</g>
<g style="mix-blend-mode:multiply" opacity="0.33">
<path d="M292.567 214.583H261.187C260.706 214.583 260.316 214.973 260.316 215.455V225.907C260.316 226.388 260.706 226.779 261.187 226.779H292.567C293.049 226.779 293.439 226.388 293.439 225.907V215.455C293.439 214.973 293.049 214.583 292.567 214.583Z" fill="#4E4E4E"/>
</g>
<g style="mix-blend-mode:multiply" opacity="0.33">
<path d="M150.075 196.744H139.615C139.134 196.744 138.744 197.134 138.744 197.615V208.068C138.744 208.549 139.134 208.939 139.615 208.939H150.075C150.557 208.939 150.947 208.549 150.947 208.068V197.615C150.947 197.134 150.557 196.744 150.075 196.744Z" fill="#4E4E4E"/>
</g>
<g style="mix-blend-mode:multiply" opacity="0.33">
<path d="M131.213 196.744H110.293C109.812 196.744 109.422 197.134 109.422 197.615V208.068C109.422 208.549 109.812 208.939 110.293 208.939H131.213C131.695 208.939 132.085 208.549 132.085 208.068V197.615C132.085 197.134 131.695 196.744 131.213 196.744Z" fill="#4E4E4E"/>
</g>
<g style="mix-blend-mode:multiply" opacity="0.33">
<path d="M168.937 196.744H158.477C157.996 196.744 157.605 197.134 157.605 197.615V208.068C157.605 208.549 157.996 208.939 158.477 208.939H168.937C169.418 208.939 169.809 208.549 169.809 208.068V197.615C169.809 197.134 169.418 196.744 168.937 196.744Z" fill="#4E4E4E"/>
</g>
<g style="mix-blend-mode:multiply" opacity="0.33">
<path d="M187.799 196.744H177.339C176.857 196.744 176.467 197.134 176.467 197.615V208.068C176.467 208.549 176.857 208.939 177.339 208.939H187.799C188.28 208.939 188.67 208.549 188.67 208.068V197.615C188.67 197.134 188.28 196.744 187.799 196.744Z" fill="#4E4E4E"/>
</g>
<g style="mix-blend-mode:multiply" opacity="0.33">
<path d="M206.66 196.744H196.2C195.719 196.744 195.328 197.134 195.328 197.615V208.068C195.328 208.549 195.719 208.939 196.2 208.939H206.66C207.141 208.939 207.532 208.549 207.532 208.068V197.615C207.532 197.134 207.141 196.744 206.66 196.744Z" fill="#4E4E4E"/>
</g>
<g style="mix-blend-mode:multiply" opacity="0.33">
<path d="M225.522 196.744H215.062C214.581 196.744 214.19 197.134 214.19 197.615V208.068C214.19 208.549 214.581 208.939 215.062 208.939H225.522C226.003 208.939 226.394 208.549 226.394 208.068V197.615C226.394 197.134 226.003 196.744 225.522 196.744Z" fill="#4E4E4E"/>
</g>
<g style="mix-blend-mode:multiply" opacity="0.33">
<path d="M244.384 196.744H233.924C233.443 196.744 233.052 197.134 233.052 197.615V208.068C233.052 208.549 233.443 208.939 233.924 208.939H244.384C244.865 208.939 245.256 208.549 245.256 208.068V197.615C245.256 197.134 244.865 196.744 244.384 196.744Z" fill="#4E4E4E"/>
</g>
<g style="mix-blend-mode:multiply" opacity="0.33">
<path d="M263.245 196.744H252.785C252.303 196.744 251.913 197.134 251.913 197.615V208.068C251.913 208.549 252.303 208.939 252.785 208.939H263.245C263.726 208.939 264.117 208.549 264.117 208.068V197.615C264.117 197.134 263.726 196.744 263.245 196.744Z" fill="#4E4E4E"/>
</g>
<g style="mix-blend-mode:multiply" opacity="0.33">
<path d="M292.567 196.744H271.647C271.166 196.744 270.776 197.134 270.776 197.615V208.068C270.776 208.549 271.166 208.939 271.647 208.939H292.567C293.049 208.939 293.439 208.549 293.439 208.068V197.615C293.439 197.134 293.049 196.744 292.567 196.744Z" fill="#4E4E4E"/>
</g>
<g style="mix-blend-mode:multiply" opacity="0.33">
<path d="M139.844 179.671H129.384C128.903 179.671 128.513 180.061 128.513 180.542V190.995C128.513 191.476 128.903 191.866 129.384 191.866H139.844C140.326 191.866 140.716 191.476 140.716 190.995V180.542C140.716 180.061 140.326 179.671 139.844 179.671Z" fill="#4E4E4E"/>
</g>
<g style="mix-blend-mode:multiply" opacity="0.33">
<path d="M120.753 179.671H110.293C109.812 179.671 109.422 180.061 109.422 180.542V190.995C109.422 191.476 109.812 191.866 110.293 191.866H120.753C121.235 191.866 121.625 191.476 121.625 190.995V180.542C121.625 180.061 121.235 179.671 120.753 179.671Z" fill="#4E4E4E"/>
</g>
<g style="mix-blend-mode:multiply" opacity="0.33">
<path d="M158.934 179.671H148.474C147.993 179.671 147.603 180.061 147.603 180.542V190.995C147.603 191.476 147.993 191.866 148.474 191.866H158.934C159.416 191.866 159.806 191.476 159.806 190.995V180.542C159.806 180.061 159.416 179.671 158.934 179.671Z" fill="#4E4E4E"/>
</g>
<g style="mix-blend-mode:multiply" opacity="0.33">
<path d="M178.024 179.671H167.564C167.083 179.671 166.693 180.061 166.693 180.542V190.995C166.693 191.476 167.083 191.866 167.564 191.866H178.024C178.506 191.866 178.896 191.476 178.896 190.995V180.542C178.896 180.061 178.506 179.671 178.024 179.671Z" fill="#4E4E4E"/>
</g>
<g style="mix-blend-mode:multiply" opacity="0.33">
<path d="M197.115 179.671H186.655C186.174 179.671 185.783 180.061 185.783 180.542V190.995C185.783 191.476 186.174 191.866 186.655 191.866H197.115C197.597 191.866 197.987 191.476 197.987 190.995V180.542C197.987 180.061 197.597 179.671 197.115 179.671Z" fill="#4E4E4E"/>
</g>
<g style="mix-blend-mode:multiply" opacity="0.33">
<path d="M216.206 179.671H205.746C205.264 179.671 204.874 180.061 204.874 180.542V190.995C204.874 191.476 205.264 191.866 205.746 191.866H216.206C216.687 191.866 217.077 191.476 217.077 190.995V180.542C217.077 180.061 216.687 179.671 216.206 179.671Z" fill="#4E4E4E"/>
</g>
<g style="mix-blend-mode:multiply" opacity="0.33">
<path d="M235.296 179.671H224.836C224.354 179.671 223.964 180.061 223.964 180.542V190.995C223.964 191.476 224.354 191.866 224.836 191.866H235.296C235.777 191.866 236.168 191.476 236.168 190.995V180.542C236.168 180.061 235.777 179.671 235.296 179.671Z" fill="#4E4E4E"/>
</g>
<g style="mix-blend-mode:multiply" opacity="0.33">
<path d="M254.386 179.671H243.926C243.445 179.671 243.055 180.061 243.055 180.542V190.995C243.055 191.476 243.445 191.866 243.926 191.866H254.386C254.868 191.866 255.258 191.476 255.258 190.995V180.542C255.258 180.061 254.868 179.671 254.386 179.671Z" fill="#4E4E4E"/>
</g>
<g style="mix-blend-mode:multiply" opacity="0.33">
<path d="M273.477 179.671H263.017C262.535 179.671 262.145 180.061 262.145 180.542V190.995C262.145 191.476 262.535 191.866 263.017 191.866H273.477C273.958 191.866 274.349 191.476 274.349 190.995V180.542C274.349 180.061 273.958 179.671 273.477 179.671Z" fill="#4E4E4E"/>
</g>
<g style="mix-blend-mode:multiply" opacity="0.33">
<path d="M292.567 179.671H282.107C281.626 179.671 281.235 180.061 281.235 180.542V190.995C281.235 191.476 281.626 191.866 282.107 191.866H292.567C293.049 191.866 293.439 191.476 293.439 190.995V180.542C293.439 180.061 293.049 179.671 292.567 179.671Z" fill="#4E4E4E"/>
</g>
<g style="mix-blend-mode:multiply" opacity="0.33">
<path d="M127.338 151.879H275.522V163.592C275.522 164.516 275.154 165.402 274.5 166.056C273.846 166.709 272.959 167.077 272.035 167.077H130.825C129.9 167.077 129.013 166.709 128.359 166.056C127.706 165.402 127.338 164.516 127.338 163.592V151.879Z" fill="#4E4E4E"/>
</g>
<g style="mix-blend-mode:multiply" opacity="0.25">
<path d="M272.035 163.591H130.825C129.9 163.591 129.013 163.224 128.359 162.57C127.706 161.917 127.338 161.031 127.338 160.107V163.591C127.338 164.515 127.706 165.401 128.359 166.055C129.013 166.708 129.9 167.076 130.825 167.076H272.035C272.959 167.076 273.846 166.708 274.5 166.055C275.154 165.401 275.522 164.515 275.522 163.591V160.107C275.522 161.031 275.154 161.917 274.5 162.57C273.846 163.224 272.959 163.591 272.035 163.591Z" fill="#4E4E4E"/>
</g>
<g style="mix-blend-mode:multiply" opacity="0.33">
<path d="M127.338 151.879H275.522V163.592C275.522 164.516 275.154 165.402 274.5 166.056C273.846 166.709 272.959 167.077 272.035 167.077H130.825C129.9 167.077 129.013 166.709 128.359 166.056C127.706 165.402 127.338 164.516 127.338 163.592V151.879Z" fill="#4E4E4E"/>
<path d="M127.338 151.879H275.522V163.592C275.522 164.516 275.154 165.402 274.5 166.056C273.846 166.709 272.959 167.077 272.035 167.077H130.825C129.9 167.077 129.013 166.709 128.359 166.056C127.706 165.402 127.338 164.516 127.338 163.592V151.879Z" stroke="#46505C" stroke-width="3.33333" stroke-linecap="round" stroke-linejoin="round"/>
</g>
<g style="mix-blend-mode:multiply" opacity="0.33">
<path d="M231.939 255.89H170.923C169.96 255.89 169.179 256.671 169.179 257.633V298.574C169.179 299.536 169.96 300.316 170.923 300.316H231.939C232.902 300.316 233.683 299.536 233.683 298.574V257.633C233.683 256.671 232.902 255.89 231.939 255.89Z" fill="#4E4E4E"/>
</g>
<g style="mix-blend-mode:multiply" opacity="0.33">
<path d="M231.939 255.89H170.923C169.96 255.89 169.179 256.671 169.179 257.633V298.574C169.179 299.536 169.96 300.316 170.923 300.316H231.939C232.902 300.316 233.683 299.536 233.683 298.574V257.633C233.683 256.671 232.902 255.89 231.939 255.89Z" fill="#4E4E4E"/>
<path d="M231.939 255.89H170.923C169.96 255.89 169.179 256.671 169.179 257.633V298.574C169.179 299.536 169.96 300.316 170.923 300.316H231.939C232.902 300.316 233.683 299.536 233.683 298.574V257.633C233.683 256.671 232.902 255.89 231.939 255.89Z" stroke="#626C84" stroke-width="1.66667" stroke-linecap="round" stroke-linejoin="round"/>
</g>
</g>
<path d="M295.614 8.64221H93.3868C86.6469 8.64221 81.1832 14.1023 81.1832 20.8375V139.305C81.1832 146.041 86.6469 151.501 93.3868 151.501H295.614C302.353 151.501 307.817 146.041 307.817 139.305V20.8375C307.817 14.1023 302.353 8.64221 295.614 8.64221Z" stroke="black" stroke-width="1.66667" stroke-linecap="round" stroke-linejoin="round"/>
<path d="M295.614 8.64221H93.3868C86.6469 8.64221 81.1832 14.1023 81.1832 20.8375V139.305C81.1832 146.041 86.6469 151.501 93.3868 151.501H295.614C302.353 151.501 307.817 146.041 307.817 139.305V20.8375C307.817 14.1023 302.353 8.64221 295.614 8.64221Z" fill="#626C84"/>
<path d="M295.614 8.64221H93.3868C86.6469 8.64221 81.1832 14.1023 81.1832 20.8375V139.305C81.1832 146.041 86.6469 151.501 93.3868 151.501H295.614C302.353 151.501 307.817 146.041 307.817 139.305V20.8375C307.817 14.1023 302.353 8.64221 295.614 8.64221Z" fill="#626C84"/>
<g style="mix-blend-mode:multiply" opacity="0.17">
<path d="M295.614 8.64221H93.3868C86.6469 8.64221 81.1832 14.1023 81.1832 20.8375V131.48C81.1832 138.215 86.6469 143.675 93.3868 143.675H295.614C302.353 143.675 307.817 138.215 307.817 131.48V20.8375C307.817 14.1023 302.353 8.64221 295.614 8.64221Z" fill="#626C84"/>
</g>
<path opacity="0.1" d="M93.3868 12.1231H295.614C298.85 12.1231 301.954 13.4076 304.243 15.6947C306.531 17.9818 307.817 21.0837 307.817 24.3185V139.302V20.8337C307.817 17.5995 306.531 14.4976 304.243 12.2105C301.954 9.92341 298.85 8.63892 295.614 8.63892H93.3868C90.15 8.63892 87.0465 9.92341 84.7579 12.2105C82.4692 14.4976 81.1832 17.5995 81.1832 20.8337V24.3185C81.1832 21.0837 82.4692 17.9818 84.7579 15.6947C87.0465 13.4076 90.15 12.1231 93.3868 12.1231Z" fill="white"/>
<g opacity="0.1">
<path opacity="0.1" d="M150.243 151.501H164.25L268.111 8.64203H254.105L150.243 151.501Z" fill="white"/>
<path opacity="0.1" d="M172.33 151.501H176.64L280.502 8.64203H276.192L172.33 151.501Z" fill="white"/>
</g>
<path d="M295.614 8.64221H93.3868C86.6469 8.64221 81.1832 14.1023 81.1832 20.8375V139.305C81.1832 146.041 86.6469 151.501 93.3868 151.501H295.614C302.353 151.501 307.817 146.041 307.817 139.305V20.8375C307.817 14.1023 302.353 8.64221 295.614 8.64221Z" stroke="#46505C" stroke-width="6.66667" stroke-linecap="round" stroke-linejoin="round"/>
<path d="M292.127 134.496V24.7394H96.8737V134.496H292.127Z" fill="#1E1E1E"/>
<g opacity="0.06">
<path opacity="0.06" d="M163.477 134.496H177.484L257.279 24.7394H243.272L163.477 134.496Z" fill="white"/>
<path opacity="0.06" d="M185.564 134.496H189.874L269.67 24.7394H265.361L185.564 134.496Z" fill="white"/>
</g>
<path d="M292.127 134.496V24.7394H96.8737V134.496H292.127Z" stroke="#46505C" stroke-width="1.66667" stroke-linecap="round" stroke-linejoin="round"/>
<path d="M295.614 151.501H93.3868C86.6469 151.501 81.1832 156.961 81.1832 163.696V289.132C81.1832 295.867 86.6469 301.327 93.3868 301.327H295.614C302.353 301.327 307.817 295.867 307.817 289.132V163.696C307.817 156.961 302.353 151.501 295.614 151.501Z" fill="#E6F3FF"/>
<path d="M304.33 289.133V163.696C304.33 158.885 300.427 154.985 295.613 154.985H93.3868C88.5726 154.985 84.67 158.885 84.67 163.696V289.133C84.67 293.944 88.5726 297.844 93.3868 297.844H295.613C300.427 297.844 304.33 293.944 304.33 289.133Z" fill="white" stroke="#E6F3FF" stroke-width="3.33333" stroke-miterlimit="10"/>
<path d="M180.509 294.515H208.49C209.414 294.515 210.301 294.883 210.955 295.536C211.609 296.189 211.976 297.075 211.976 298V301.327H177.022V298C177.022 297.075 177.39 296.189 178.044 295.536C178.698 294.883 179.585 294.515 180.509 294.515Z" fill="#E6F3FF"/>
<path d="M295.614 151.501H93.3868C86.6469 151.501 81.1832 156.961 81.1832 163.696V289.132C81.1832 295.867 86.6469 301.328 93.3868 301.328H295.614C302.353 301.328 307.817 295.867 307.817 289.132V163.696C307.817 156.961 302.353 151.501 295.614 151.501Z" stroke="#46505C" stroke-width="6.66667" stroke-linecap="round" stroke-linejoin="round"/>
<path d="M292.127 163.19H96.8732C95.4292 163.19 94.2582 164.36 94.2582 165.803V240.716C94.2582 242.16 95.4292 243.33 96.8732 243.33H292.127C293.571 243.33 294.742 242.16 294.742 240.716V165.803C294.742 164.36 293.571 163.19 292.127 163.19Z" fill="#E6F3FF"/>
<path d="M132.685 223.73H122.225C121.743 223.73 121.353 224.12 121.353 224.601V235.054C121.353 235.535 121.743 235.925 122.225 235.925H132.685C133.166 235.925 133.556 235.535 133.556 235.054V224.601C133.556 224.12 133.166 223.73 132.685 223.73Z" stroke="#626C84" stroke-width="1.66667" stroke-linecap="round" stroke-linejoin="round"/>
<path d="M113.824 223.73H103.364C102.882 223.73 102.492 224.12 102.492 224.601V235.054C102.492 235.535 102.882 235.925 103.364 235.925H113.824C114.305 235.925 114.695 235.535 114.695 235.054V224.601C114.695 224.12 114.305 223.73 113.824 223.73Z" stroke="#626C84" stroke-width="1.66667" stroke-linecap="round" stroke-linejoin="round"/>
<path d="M226.994 223.73H141.087C140.606 223.73 140.216 224.12 140.216 224.601V235.054C140.216 235.535 140.606 235.925 141.087 235.925H226.994C227.475 235.925 227.865 235.535 227.865 235.054V224.601C227.865 224.12 227.475 223.73 226.994 223.73Z" stroke="#626C84" stroke-width="1.66667" stroke-linecap="round" stroke-linejoin="round"/>
<path d="M245.855 223.73H235.395C234.914 223.73 234.523 224.12 234.523 224.601V235.054C234.523 235.535 234.914 235.925 235.395 235.925H245.855C246.336 235.925 246.727 235.535 246.727 235.054V224.601C246.727 224.12 246.336 223.73 245.855 223.73Z" stroke="#626C84" stroke-width="1.66667" stroke-linecap="round" stroke-linejoin="round"/>
<path d="M273.433 230.59H266.46C265.978 230.59 265.588 230.98 265.588 231.462V235.055C265.588 235.536 265.978 235.926 266.46 235.926H273.433C273.914 235.926 274.305 235.536 274.305 235.055V231.462C274.305 230.98 273.914 230.59 273.433 230.59Z" stroke="#626C84" stroke-width="1.66667" stroke-linecap="round" stroke-linejoin="round"/>
<path d="M273.433 223.73H266.46C265.978 223.73 265.588 224.12 265.588 224.601V228.194C265.588 228.675 265.978 229.066 266.46 229.066H273.433C273.914 229.066 274.305 228.675 274.305 228.194V224.601C274.305 224.12 273.914 223.73 273.433 223.73Z" stroke="#626C84" stroke-width="1.66667" stroke-linecap="round" stroke-linejoin="round"/>
<path d="M285.636 230.59H278.663C278.182 230.59 277.791 230.98 277.791 231.462V235.055C277.791 235.536 278.182 235.926 278.663 235.926H285.636C286.118 235.926 286.508 235.536 286.508 235.055V231.462C286.508 230.98 286.118 230.59 285.636 230.59Z" stroke="#626C84" stroke-width="1.66667" stroke-linecap="round" stroke-linejoin="round"/>
<path d="M261.23 230.59H254.256C253.775 230.59 253.385 230.98 253.385 231.462V235.055C253.385 235.536 253.775 235.926 254.256 235.926H261.23C261.711 235.926 262.101 235.536 262.101 235.055V231.462C262.101 230.98 261.711 230.59 261.23 230.59Z" stroke="#626C84" stroke-width="1.66667" stroke-linecap="round" stroke-linejoin="round"/>
<path d="M130.942 206.379H103.364C102.882 206.379 102.492 206.769 102.492 207.25V217.703C102.492 218.185 102.882 218.574 103.364 218.574H130.942C131.424 218.574 131.814 218.185 131.814 217.703V207.25C131.814 206.769 131.424 206.379 130.942 206.379Z" stroke="#626C84" stroke-width="1.66667" stroke-linecap="round" stroke-linejoin="round"/>
<path d="M149.961 206.379H139.501C139.02 206.379 138.629 206.769 138.629 207.25V217.703C138.629 218.185 139.02 218.574 139.501 218.574H149.961C150.442 218.574 150.833 218.185 150.833 217.703V207.25C150.833 206.769 150.442 206.379 149.961 206.379Z" stroke="#626C84" stroke-width="1.66667" stroke-linecap="round" stroke-linejoin="round"/>
<path d="M168.822 206.379H158.362C157.881 206.379 157.49 206.769 157.49 207.25V217.703C157.49 218.185 157.881 218.574 158.362 218.574H168.822C169.303 218.574 169.694 218.185 169.694 217.703V207.25C169.694 206.769 169.303 206.379 168.822 206.379Z" stroke="#626C84" stroke-width="1.66667" stroke-linecap="round" stroke-linejoin="round"/>
<path d="M187.684 206.379H177.224C176.743 206.379 176.353 206.769 176.353 207.25V217.703C176.353 218.185 176.743 218.574 177.224 218.574H187.684C188.166 218.574 188.556 218.185 188.556 217.703V207.25C188.556 206.769 188.166 206.379 187.684 206.379Z" stroke="#626C84" stroke-width="1.66667" stroke-linecap="round" stroke-linejoin="round"/>
<path d="M206.545 206.379H196.085C195.604 206.379 195.214 206.769 195.214 207.25V217.703C195.214 218.185 195.604 218.574 196.085 218.574H206.545C207.027 218.574 207.417 218.185 207.417 217.703V207.25C207.417 206.769 207.027 206.379 206.545 206.379Z" stroke="#626C84" stroke-width="1.66667" stroke-linecap="round" stroke-linejoin="round"/>
<path d="M225.407 206.379H214.947C214.466 206.379 214.076 206.769 214.076 207.25V217.703C214.076 218.185 214.466 218.574 214.947 218.574H225.407C225.889 218.574 226.279 218.185 226.279 217.703V207.25C226.279 206.769 225.889 206.379 225.407 206.379Z" stroke="#626C84" stroke-width="1.66667" stroke-linecap="round" stroke-linejoin="round"/>
<path d="M244.269 206.379H233.809C233.328 206.379 232.937 206.769 232.937 207.25V217.703C232.937 218.185 233.328 218.574 233.809 218.574H244.269C244.75 218.574 245.141 218.185 245.141 217.703V207.25C245.141 206.769 244.75 206.379 244.269 206.379Z" stroke="#626C84" stroke-width="1.66667" stroke-linecap="round" stroke-linejoin="round"/>
<path d="M285.636 206.379H254.256C253.775 206.379 253.385 206.769 253.385 207.25V217.703C253.385 218.185 253.775 218.574 254.256 218.574H285.636C286.118 218.574 286.508 218.185 286.508 217.703V207.25C286.508 206.769 286.118 206.379 285.636 206.379Z" stroke="#626C84" stroke-width="1.66667" stroke-linecap="round" stroke-linejoin="round"/>
<path d="M143.145 188.539H132.685C132.203 188.539 131.813 188.929 131.813 189.41V199.863C131.813 200.344 132.203 200.734 132.685 200.734H143.145C143.626 200.734 144.016 200.344 144.016 199.863V189.41C144.016 188.929 143.626 188.539 143.145 188.539Z" stroke="#626C84" stroke-width="1.66667" stroke-linecap="round" stroke-linejoin="round"/>
<path d="M124.284 188.539H103.364C102.882 188.539 102.492 188.929 102.492 189.41V199.863C102.492 200.344 102.882 200.734 103.364 200.734H124.284C124.765 200.734 125.155 200.344 125.155 199.863V189.41C125.155 188.929 124.765 188.539 124.284 188.539Z" stroke="#626C84" stroke-width="1.66667" stroke-linecap="round" stroke-linejoin="round"/>
<path d="M162.007 188.539H151.547C151.066 188.539 150.676 188.929 150.676 189.41V199.863C150.676 200.344 151.066 200.734 151.547 200.734H162.007C162.489 200.734 162.879 200.344 162.879 199.863V189.41C162.879 188.929 162.489 188.539 162.007 188.539Z" stroke="#626C84" stroke-width="1.66667" stroke-linecap="round" stroke-linejoin="round"/>
<path d="M180.867 188.539H170.407C169.926 188.539 169.536 188.929 169.536 189.41V199.863C169.536 200.344 169.926 200.734 170.407 200.734H180.867C181.349 200.734 181.739 200.344 181.739 199.863V189.41C181.739 188.929 181.349 188.539 180.867 188.539Z" stroke="#626C84" stroke-width="1.66667" stroke-linecap="round" stroke-linejoin="round"/>
<path d="M199.73 188.539H189.27C188.788 188.539 188.398 188.929 188.398 189.41V199.863C188.398 200.344 188.788 200.734 189.27 200.734H199.73C200.211 200.734 200.601 200.344 200.601 199.863V189.41C200.601 188.929 200.211 188.539 199.73 188.539Z" stroke="#626C84" stroke-width="1.66667" stroke-linecap="round" stroke-linejoin="round"/>
<path d="M218.592 188.539H208.132C207.651 188.539 207.26 188.929 207.26 189.41V199.863C207.26 200.344 207.651 200.734 208.132 200.734H218.592C219.074 200.734 219.464 200.344 219.464 199.863V189.41C219.464 188.929 219.074 188.539 218.592 188.539Z" stroke="#626C84" stroke-width="1.66667" stroke-linecap="round" stroke-linejoin="round"/>
<path d="M237.453 188.539H226.993C226.512 188.539 226.121 188.929 226.121 189.41V199.863C226.121 200.344 226.512 200.734 226.993 200.734H237.453C237.935 200.734 238.325 200.344 238.325 199.863V189.41C238.325 188.929 237.935 188.539 237.453 188.539Z" stroke="#626C84" stroke-width="1.66667" stroke-linecap="round" stroke-linejoin="round"/>
<path d="M256.315 188.539H245.855C245.374 188.539 244.983 188.929 244.983 189.41V199.863C244.983 200.344 245.374 200.734 245.855 200.734H256.315C256.796 200.734 257.187 200.344 257.187 199.863V189.41C257.187 188.929 256.796 188.539 256.315 188.539Z" stroke="#626C84" stroke-width="1.66667" stroke-linecap="round" stroke-linejoin="round"/>
<path d="M285.636 188.539H264.716C264.235 188.539 263.845 188.929 263.845 189.41V199.863C263.845 200.344 264.235 200.734 264.716 200.734H285.636C286.118 200.734 286.508 200.344 286.508 199.863V189.41C286.508 188.929 286.118 188.539 285.636 188.539Z" stroke="#626C84" stroke-width="1.66667" stroke-linecap="round" stroke-linejoin="round"/>
<path d="M132.914 171.465H122.454C121.973 171.465 121.583 171.855 121.583 172.336V182.789C121.583 183.27 121.973 183.66 122.454 183.66H132.914C133.396 183.66 133.786 183.27 133.786 182.789V172.336C133.786 171.855 133.396 171.465 132.914 171.465Z" stroke="#626C84" stroke-width="1.66667" stroke-linecap="round" stroke-linejoin="round"/>
<path d="M113.824 171.465H103.364C102.882 171.465 102.492 171.855 102.492 172.336V182.789C102.492 183.27 102.882 183.66 103.364 183.66H113.824C114.305 183.66 114.695 183.27 114.695 182.789V172.336C114.695 171.855 114.305 171.465 113.824 171.465Z" stroke="#626C84" stroke-width="1.66667" stroke-linecap="round" stroke-linejoin="round"/>
<path d="M152.005 171.465H141.545C141.063 171.465 140.673 171.855 140.673 172.336V182.789C140.673 183.27 141.063 183.66 141.545 183.66H152.005C152.486 183.66 152.876 183.27 152.876 182.789V172.336C152.876 171.855 152.486 171.465 152.005 171.465Z" stroke="#626C84" stroke-width="1.66667" stroke-linecap="round" stroke-linejoin="round"/>
<path d="M171.095 171.465H160.635C160.154 171.465 159.763 171.855 159.763 172.336V182.789C159.763 183.27 160.154 183.66 160.635 183.66H171.095C171.576 183.66 171.967 183.27 171.967 182.789V172.336C171.967 171.855 171.576 171.465 171.095 171.465Z" stroke="#626C84" stroke-width="1.66667" stroke-linecap="round" stroke-linejoin="round"/>
<path d="M190.185 171.465H179.725C179.244 171.465 178.853 171.855 178.853 172.336V182.789C178.853 183.27 179.244 183.66 179.725 183.66H190.185C190.666 183.66 191.057 183.27 191.057 182.789V172.336C191.057 171.855 190.666 171.465 190.185 171.465Z" stroke="#626C84" stroke-width="1.66667" stroke-linecap="round" stroke-linejoin="round"/>
<path d="M209.275 171.465H198.815C198.334 171.465 197.943 171.855 197.943 172.336V182.789C197.943 183.27 198.334 183.66 198.815 183.66H209.275C209.756 183.66 210.147 183.27 210.147 182.789V172.336C210.147 171.855 209.756 171.465 209.275 171.465Z" stroke="#626C84" stroke-width="1.66667" stroke-linecap="round" stroke-linejoin="round"/>
<path d="M228.365 171.465H217.905C217.424 171.465 217.033 171.855 217.033 172.336V182.789C217.033 183.27 217.424 183.66 217.905 183.66H228.365C228.846 183.66 229.237 183.27 229.237 182.789V172.336C229.237 171.855 228.846 171.465 228.365 171.465Z" stroke="#626C84" stroke-width="1.66667" stroke-linecap="round" stroke-linejoin="round"/>
<path d="M247.455 171.465H236.995C236.514 171.465 236.123 171.855 236.123 172.336V182.789C236.123 183.27 236.514 183.66 236.995 183.66H247.455C247.937 183.66 248.327 183.27 248.327 182.789V172.336C248.327 171.855 247.937 171.465 247.455 171.465Z" stroke="#626C84" stroke-width="1.66667" stroke-linecap="round" stroke-linejoin="round"/>
<path d="M266.546 171.465H256.086C255.604 171.465 255.214 171.855 255.214 172.336V182.789C255.214 183.27 255.604 183.66 256.086 183.66H266.546C267.027 183.66 267.417 183.27 267.417 182.789V172.336C267.417 171.855 267.027 171.465 266.546 171.465Z" stroke="#626C84" stroke-width="1.66667" stroke-linecap="round" stroke-linejoin="round"/>
<path d="M285.636 171.465H275.176C274.695 171.465 274.305 171.855 274.305 172.336V182.789C274.305 183.27 274.695 183.66 275.176 183.66H285.636C286.118 183.66 286.508 183.27 286.508 182.789V172.336C286.508 171.855 286.118 171.465 285.636 171.465Z" stroke="#626C84" stroke-width="1.66667" stroke-linecap="round" stroke-linejoin="round"/>
<path d="M132.685 223.73H122.225C121.743 223.73 121.353 224.12 121.353 224.601V235.054C121.353 235.535 121.743 235.925 122.225 235.925H132.685C133.166 235.925 133.556 235.535 133.556 235.054V224.601C133.556 224.12 133.166 223.73 132.685 223.73Z" fill="#626C84"/>
<path d="M113.824 223.73H103.364C102.882 223.73 102.492 224.12 102.492 224.601V235.054C102.492 235.535 102.882 235.925 103.364 235.925H113.824C114.305 235.925 114.695 235.535 114.695 235.054V224.601C114.695 224.12 114.305 223.73 113.824 223.73Z" fill="#626C84"/>
<path d="M226.994 223.73H141.087C140.606 223.73 140.216 224.12 140.216 224.601V235.054C140.216 235.535 140.606 235.925 141.087 235.925H226.994C227.475 235.925 227.865 235.535 227.865 235.054V224.601C227.865 224.12 227.475 223.73 226.994 223.73Z" fill="#626C84"/>
<path d="M245.855 223.73H235.395C234.914 223.73 234.523 224.12 234.523 224.601V235.054C234.523 235.535 234.914 235.925 235.395 235.925H245.855C246.336 235.925 246.727 235.535 246.727 235.054V224.601C246.727 224.12 246.336 223.73 245.855 223.73Z" fill="#626C84"/>
<path d="M273.433 230.59H266.46C265.978 230.59 265.588 230.98 265.588 231.462V235.055C265.588 235.536 265.978 235.926 266.46 235.926H273.433C273.914 235.926 274.305 235.536 274.305 235.055V231.462C274.305 230.98 273.914 230.59 273.433 230.59Z" fill="#626C84"/>
<path d="M273.433 223.73H266.46C265.978 223.73 265.588 224.12 265.588 224.601V228.194C265.588 228.675 265.978 229.066 266.46 229.066H273.433C273.914 229.066 274.305 228.675 274.305 228.194V224.601C274.305 224.12 273.914 223.73 273.433 223.73Z" fill="#626C84"/>
<path d="M285.636 230.59H278.663C278.182 230.59 277.791 230.98 277.791 231.462V235.055C277.791 235.536 278.182 235.926 278.663 235.926H285.636C286.118 235.926 286.508 235.536 286.508 235.055V231.462C286.508 230.98 286.118 230.59 285.636 230.59Z" fill="#626C84"/>
<path d="M261.23 230.59H254.256C253.775 230.59 253.385 230.98 253.385 231.462V235.055C253.385 235.536 253.775 235.926 254.256 235.926H261.23C261.711 235.926 262.101 235.536 262.101 235.055V231.462C262.101 230.98 261.711 230.59 261.23 230.59Z" fill="#626C84"/>
<path d="M130.942 206.379H103.364C102.882 206.379 102.492 206.769 102.492 207.25V217.703C102.492 218.185 102.882 218.574 103.364 218.574H130.942C131.424 218.574 131.814 218.185 131.814 217.703V207.25C131.814 206.769 131.424 206.379 130.942 206.379Z" fill="#626C84"/>
<path d="M149.961 206.379H139.501C139.02 206.379 138.629 206.769 138.629 207.25V217.703C138.629 218.185 139.02 218.574 139.501 218.574H149.961C150.442 218.574 150.833 218.185 150.833 217.703V207.25C150.833 206.769 150.442 206.379 149.961 206.379Z" fill="#626C84"/>
<path d="M168.822 206.379H158.362C157.881 206.379 157.49 206.769 157.49 207.25V217.703C157.49 218.185 157.881 218.574 158.362 218.574H168.822C169.303 218.574 169.694 218.185 169.694 217.703V207.25C169.694 206.769 169.303 206.379 168.822 206.379Z" fill="#626C84"/>
<path d="M187.684 206.379H177.224C176.743 206.379 176.353 206.769 176.353 207.25V217.703C176.353 218.185 176.743 218.574 177.224 218.574H187.684C188.166 218.574 188.556 218.185 188.556 217.703V207.25C188.556 206.769 188.166 206.379 187.684 206.379Z" fill="#626C84"/>
<path d="M206.545 206.379H196.085C195.604 206.379 195.214 206.769 195.214 207.25V217.703C195.214 218.185 195.604 218.574 196.085 218.574H206.545C207.027 218.574 207.417 218.185 207.417 217.703V207.25C207.417 206.769 207.027 206.379 206.545 206.379Z" fill="#626C84"/>
<path d="M225.407 206.379H214.947C214.466 206.379 214.076 206.769 214.076 207.25V217.703C214.076 218.185 214.466 218.574 214.947 218.574H225.407C225.889 218.574 226.279 218.185 226.279 217.703V207.25C226.279 206.769 225.889 206.379 225.407 206.379Z" fill="#626C84"/>
<path d="M244.269 206.379H233.809C233.328 206.379 232.937 206.769 232.937 207.25V217.703C232.937 218.185 233.328 218.574 233.809 218.574H244.269C244.75 218.574 245.141 218.185 245.141 217.703V207.25C245.141 206.769 244.75 206.379 244.269 206.379Z" fill="#626C84"/>
<path d="M285.636 206.379H254.256C253.775 206.379 253.385 206.769 253.385 207.25V217.703C253.385 218.185 253.775 218.574 254.256 218.574H285.636C286.118 218.574 286.508 218.185 286.508 217.703V207.25C286.508 206.769 286.118 206.379 285.636 206.379Z" fill="#626C84"/>
<path d="M143.145 188.539H132.685C132.203 188.539 131.813 188.929 131.813 189.41V199.863C131.813 200.344 132.203 200.734 132.685 200.734H143.145C143.626 200.734 144.016 200.344 144.016 199.863V189.41C144.016 188.929 143.626 188.539 143.145 188.539Z" fill="#626C84"/>
<path d="M124.284 188.539H103.364C102.882 188.539 102.492 188.929 102.492 189.41V199.863C102.492 200.344 102.882 200.734 103.364 200.734H124.284C124.765 200.734 125.155 200.344 125.155 199.863V189.41C125.155 188.929 124.765 188.539 124.284 188.539Z" fill="#626C84"/>
<path d="M162.007 188.539H151.547C151.066 188.539 150.676 188.929 150.676 189.41V199.863C150.676 200.344 151.066 200.734 151.547 200.734H162.007C162.489 200.734 162.879 200.344 162.879 199.863V189.41C162.879 188.929 162.489 188.539 162.007 188.539Z" fill="#626C84"/>
<path d="M180.867 188.539H170.407C169.926 188.539 169.536 188.929 169.536 189.41V199.863C169.536 200.344 169.926 200.734 170.407 200.734H180.867C181.349 200.734 181.739 200.344 181.739 199.863V189.41C181.739 188.929 181.349 188.539 180.867 188.539Z" fill="#626C84"/>
<path d="M199.73 188.539H189.27C188.788 188.539 188.398 188.929 188.398 189.41V199.863C188.398 200.344 188.788 200.734 189.27 200.734H199.73C200.211 200.734 200.601 200.344 200.601 199.863V189.41C200.601 188.929 200.211 188.539 199.73 188.539Z" fill="#626C84"/>
<path d="M218.592 188.539H208.132C207.651 188.539 207.26 188.929 207.26 189.41V199.863C207.26 200.344 207.651 200.734 208.132 200.734H218.592C219.074 200.734 219.464 200.344 219.464 199.863V189.41C219.464 188.929 219.074 188.539 218.592 188.539Z" fill="#626C84"/>
<path d="M237.453 188.539H226.993C226.512 188.539 226.121 188.929 226.121 189.41V199.863C226.121 200.344 226.512 200.734 226.993 200.734H237.453C237.935 200.734 238.325 200.344 238.325 199.863V189.41C238.325 188.929 237.935 188.539 237.453 188.539Z" fill="#626C84"/>
<path d="M256.315 188.539H245.855C245.374 188.539 244.983 188.929 244.983 189.41V199.863C244.983 200.344 245.374 200.734 245.855 200.734H256.315C256.796 200.734 257.187 200.344 257.187 199.863V189.41C257.187 188.929 256.796 188.539 256.315 188.539Z" fill="#626C84"/>
<path d="M285.636 188.539H264.716C264.235 188.539 263.845 188.929 263.845 189.41V199.863C263.845 200.344 264.235 200.734 264.716 200.734H285.636C286.118 200.734 286.508 200.344 286.508 199.863V189.41C286.508 188.929 286.118 188.539 285.636 188.539Z" fill="#626C84"/>
<path d="M132.914 171.465H122.454C121.973 171.465 121.583 171.855 121.583 172.336V182.789C121.583 183.27 121.973 183.66 122.454 183.66H132.914C133.396 183.66 133.786 183.27 133.786 182.789V172.336C133.786 171.855 133.396 171.465 132.914 171.465Z" fill="#626C84"/>
<path d="M113.824 171.465H103.364C102.882 171.465 102.492 171.855 102.492 172.336V182.789C102.492 183.27 102.882 183.66 103.364 183.66H113.824C114.305 183.66 114.695 183.27 114.695 182.789V172.336C114.695 171.855 114.305 171.465 113.824 171.465Z" fill="#626C84"/>
<path d="M152.005 171.465H141.545C141.063 171.465 140.673 171.855 140.673 172.336V182.789C140.673 183.27 141.063 183.66 141.545 183.66H152.005C152.486 183.66 152.876 183.27 152.876 182.789V172.336C152.876 171.855 152.486 171.465 152.005 171.465Z" fill="#626C84"/>
<path d="M171.095 171.465H160.635C160.154 171.465 159.763 171.855 159.763 172.336V182.789C159.763 183.27 160.154 183.66 160.635 183.66H171.095C171.576 183.66 171.967 183.27 171.967 182.789V172.336C171.967 171.855 171.576 171.465 171.095 171.465Z" fill="#626C84"/>
<path d="M190.185 171.465H179.725C179.244 171.465 178.853 171.855 178.853 172.336V182.789C178.853 183.27 179.244 183.66 179.725 183.66H190.185C190.666 183.66 191.057 183.27 191.057 182.789V172.336C191.057 171.855 190.666 171.465 190.185 171.465Z" fill="#626C84"/>
<path d="M209.275 171.465H198.815C198.334 171.465 197.943 171.855 197.943 172.336V182.789C197.943 183.27 198.334 183.66 198.815 183.66H209.275C209.756 183.66 210.147 183.27 210.147 182.789V172.336C210.147 171.855 209.756 171.465 209.275 171.465Z" fill="#626C84"/>
<path d="M228.365 171.465H217.905C217.424 171.465 217.033 171.855 217.033 172.336V182.789C217.033 183.27 217.424 183.66 217.905 183.66H228.365C228.846 183.66 229.237 183.27 229.237 182.789V172.336C229.237 171.855 228.846 171.465 228.365 171.465Z" fill="#626C84"/>
<path d="M247.455 171.465H236.995C236.514 171.465 236.123 171.855 236.123 172.336V182.789C236.123 183.27 236.514 183.66 236.995 183.66H247.455C247.937 183.66 248.327 183.27 248.327 182.789V172.336C248.327 171.855 247.937 171.465 247.455 171.465Z" fill="#626C84"/>
<path d="M266.546 171.465H256.086C255.604 171.465 255.214 171.855 255.214 172.336V182.789C255.214 183.27 255.604 183.66 256.086 183.66H266.546C267.027 183.66 267.417 183.27 267.417 182.789V172.336C267.417 171.855 267.027 171.465 266.546 171.465Z" fill="#626C84"/>
<path d="M285.636 171.465H275.176C274.695 171.465 274.305 171.855 274.305 172.336V182.789C274.305 183.27 274.695 183.66 275.176 183.66H285.636C286.118 183.66 286.508 183.27 286.508 182.789V172.336C286.508 171.855 286.118 171.465 285.636 171.465Z" fill="#626C84"/>
<path d="M120.408 143.675H268.592V155.388C268.592 156.312 268.224 157.198 267.57 157.851C266.917 158.505 266.03 158.872 265.105 158.872H123.895C122.97 158.872 122.083 158.505 121.43 157.851C120.776 157.198 120.408 156.312 120.408 155.388V143.675Z" fill="#626C84"/>
<path opacity="0.12" d="M268.592 143.675H120.408V145.417H268.592V143.675Z" fill="white"/>
<g style="mix-blend-mode:multiply" opacity="0.25">
<path d="M265.105 155.387H123.895C122.97 155.387 122.083 155.02 121.43 154.366C120.776 153.713 120.408 152.826 120.408 151.902V155.387C120.408 156.311 120.776 157.197 121.43 157.85C122.083 158.504 122.97 158.871 123.895 158.871H265.105C266.03 158.871 266.917 158.504 267.57 157.85C268.224 157.197 268.592 156.311 268.592 155.387V151.902C268.592 152.826 268.224 153.713 267.57 154.366C266.917 155.02 266.03 155.387 265.105 155.387Z" fill="#626C84"/>
</g>
<path d="M120.408 143.675H268.592V155.388C268.592 156.312 268.224 157.198 267.57 157.851C266.917 158.505 266.03 158.872 265.105 158.872H123.895C122.97 158.872 122.083 158.505 121.43 157.851C120.776 157.198 120.408 156.312 120.408 155.388V143.675Z" stroke="#46505C" stroke-width="3.33333" stroke-linecap="round" stroke-linejoin="round"/>
<path d="M225.008 247.685H163.991C163.028 247.685 162.248 248.465 162.248 249.428V290.369C162.248 291.331 163.028 292.111 163.991 292.111H225.008C225.971 292.111 226.751 291.331 226.751 290.369V249.428C226.751 248.465 225.971 247.685 225.008 247.685Z" fill="#E6F3FF"/>
<path d="M225.008 247.685H163.991C163.028 247.685 162.248 248.465 162.248 249.428V290.369C162.248 291.331 163.028 292.111 163.991 292.111H225.008C225.971 292.111 226.751 291.331 226.751 290.369V249.428C226.751 248.465 225.971 247.685 225.008 247.685Z" stroke="#626C84" stroke-width="1.66667" stroke-linecap="round" stroke-linejoin="round"/>
<path opacity="0.52" d="M194.5 20.0947C195.944 20.0947 197.115 18.9247 197.115 17.4813C197.115 16.0383 195.944 14.8683 194.5 14.8683C193.056 14.8683 191.885 16.0383 191.885 17.4813C191.885 18.9247 193.056 20.0947 194.5 20.0947Z" fill="white"/>
<path d="M194.5 20.0947C195.944 20.0947 197.115 18.9247 197.115 17.4813C197.115 16.0383 195.944 14.8683 194.5 14.8683C193.056 14.8683 191.885 16.0383 191.885 17.4813C191.885 18.9247 193.056 20.0947 194.5 20.0947Z" stroke="#46505C" stroke-width="1.66667" stroke-linecap="round" stroke-linejoin="round"/>
<path d="M248.857 35.8412H238.397C237.916 35.8412 237.526 36.2313 237.526 36.7125C237.526 37.1937 237.916 37.5833 238.397 37.5833H248.857C249.339 37.5833 249.729 37.1937 249.729 36.7125C249.729 36.2313 249.339 35.8412 248.857 35.8412Z" fill="white"/>
<path d="M271.498 35.8412H261.038C260.556 35.8412 260.166 36.2313 260.166 36.7125C260.166 37.1937 260.556 37.5833 261.038 37.5833H271.498C271.979 37.5833 272.369 37.1937 272.369 36.7125C272.369 36.2313 271.979 35.8412 271.498 35.8412Z" fill="white"/>
<path d="M226.218 35.8412H215.758C215.276 35.8412 214.886 36.2313 214.886 36.7125C214.886 37.1937 215.276 37.5833 215.758 37.5833H226.218C226.699 37.5833 227.089 37.1937 227.089 36.7125C227.089 36.2313 226.699 35.8412 226.218 35.8412Z" fill="white"/>
<path d="M113.638 41.3803C115.967 41.3803 117.854 39.4938 117.854 37.167C117.854 34.8402 115.967 32.9537 113.638 32.9537C111.31 32.9537 109.422 34.8402 109.422 37.167C109.422 39.4938 111.31 41.3803 113.638 41.3803Z" fill="white"/>
<g opacity="0.72">
<path opacity="0.72" d="M238.57 83.2993H150.327V86.4744H238.57V83.2993Z" fill="white"/>
<path opacity="0.72" d="M227.411 72.7614H161.488V75.9825H227.411V72.7614Z" fill="white"/>
</g>
<path d="M209.671 107.982H184.558C181.919 107.982 179.78 110.12 179.78 112.757C179.78 115.393 181.919 117.531 184.558 117.531H209.671C212.31 117.531 214.449 115.393 214.449 112.757C214.449 110.12 212.31 107.982 209.671 107.982Z" stroke="white" stroke-width="1.66667" stroke-miterlimit="10"/>
</g>
</g>
<defs>
<clipPath id="clip0_27_166">
<rect width="315" height="300" fill="white"/>
</clipPath>
</defs>
</svg>
