<svg width="46" height="46" viewBox="0 0 46 46" fill="none" xmlns="http://www.w3.org/2000/svg">
<g clip-path="url(#clip0_30_1543)">
<path d="M35.2188 0H10.7812C4.82693 0 0 4.82693 0 10.7812V35.2188C0 41.1731 4.82693 46 10.7812 46H35.2188C41.1731 46 46 41.1731 46 35.2188V10.7812C46 4.82693 41.1731 0 35.2188 0Z" fill="url(#paint0_linear_30_1543)"/>
<path d="M2.0641 23.1939L11.1031 26.8567V29.4206L0.40271 24.4629V22.9585L2.0641 23.1939ZM11.1031 20.1854L2.07722 23.9003L0.40289 24.0836V22.5661L11.1029 17.6214L11.1031 20.1854ZM43.3714 23.7172L34.0708 20.0938V17.5952L45.2419 22.5399V24.0704L43.3714 23.7172ZM34.0708 26.909L43.3976 23.207L45.2419 22.9323V24.4498L34.0708 29.4075V26.909Z" fill="white"/>
<path fill-rule="evenodd" clip-rule="evenodd" d="M31.6389 10.9787C31.5871 11.7992 31.2175 12.6559 31.3205 13.4535C31.9661 14.5953 33.3871 14.7773 34.5593 14.8556C35.3715 15.0008 35.3613 14.463 35.3068 13.8589L35.3167 10.9616C34.0907 10.9661 32.8643 10.9496 31.6389 10.9787ZM21.9715 13.2733C19.9755 13.6122 17.9523 14.566 16.2918 15.7142C14.9552 16.7544 17.4391 17.7624 18.3402 17.931C20.1533 17.9531 21.7613 16.7301 22.9522 15.4608C23.3411 14.9272 23.8268 14.1101 23.3382 13.4915C22.9652 13.168 22.4227 13.2464 21.9715 13.2733ZM26.2188 16.1762C24.5777 16.4888 23.0162 17.1652 21.6346 18.1069C20.6217 18.425 19.7869 19.537 21.042 20.0943C22.36 21.1445 23.8875 20.8872 25.1013 20.1782C26.2129 19.5175 27.4135 18.7022 27.9278 17.4584C28.4135 16.0958 27.1603 16.0454 26.2188 16.1762ZM30.8743 21.4559C30.5687 22.7324 29.2832 23.3128 28.5993 24.3243C28.0401 25.0621 28.299 25.9312 28.9357 26.512C29.2456 27.1547 29.789 27.5139 30.3717 26.9556C31.8725 25.9354 32.2875 23.948 32.2252 22.2261C32.3361 21.5149 31.5201 22.1578 30.8743 21.4559ZM25.1633 23.8535C23.1704 24.1945 21.1771 25.1656 19.5159 26.312C18.2263 27.3508 20.6551 28.3207 21.5636 28.4745C23.4103 28.4772 25.0575 27.2871 26.2251 25.9355C26.6312 25.3988 27.1233 24.3564 26.3192 23.9297C25.9597 23.7773 25.5423 23.822 25.1633 23.8535Z" fill="#B956A6"/>
<path fill-rule="evenodd" clip-rule="evenodd" d="M16.2917 15.7142C14.759 16.3274 13.2805 17.072 11.8204 17.8519C11.5491 18.8608 11.7667 20.1102 11.6964 21.2165C11.691 25.7655 11.6935 30.3147 11.6928 34.8636H15.0745C15.7573 34.2207 16.6127 33.7501 17.3544 33.1663C20.2104 31.118 23.0654 29.0619 25.9176 27.0194C26.1275 27.1137 25.9931 25.7847 25.5327 26.7078C24.4418 27.7343 22.9939 28.5787 21.4613 28.4962C20.5917 28.2102 19.1897 27.7248 19.1809 26.6591C19.7931 25.9384 18.0514 27.0364 17.5749 27.1937C16.0256 27.9376 14.513 28.7683 12.9605 29.4983C13.3335 29.0976 14.0315 28.7241 14.5263 28.3266C18.0613 25.7891 21.5954 23.2416 25.1388 20.7061C25.8204 20.2275 26.4788 19.7056 27.1813 19.2583C27.2455 19.5061 27.3659 18.0736 26.8433 18.9555C25.7782 20.0114 24.3414 20.7973 22.8261 20.8081C21.9738 20.5494 20.1586 19.9307 20.5627 18.8303C20.7598 18.4441 18.7321 19.6534 19.628 18.9715C20.5816 18.2747 21.5427 17.5903 22.5037 16.9006C22.9891 16.8642 22.8857 15.0613 22.2263 16.2243C21.1185 17.1977 19.663 18.0882 18.1373 17.877C17.2802 17.6303 16.2518 17.1526 15.9403 16.2563C15.8371 16.041 16.5174 15.7055 16.2917 15.7142ZM22.6417 16.827C22.5567 17.0701 22.7957 16.7382 22.6417 16.827V16.827Z" fill="#FCCC44"/>
<path fill-rule="evenodd" clip-rule="evenodd" d="M32.3256 14.5098C31.8471 16.7947 31.324 19.1862 30.8743 21.456C32.1666 23.0847 32.2918 20.4271 32.5179 19.6756C32.8832 18.105 33.3159 16.919 33.3617 15.2929C33.4587 14.7378 32.8064 14.4018 32.3256 14.5098ZM33.8082 16.3016C33.7678 16.5358 33.8671 16.3457 33.8082 16.3016V16.3016ZM32.3006 21.4253C32.3628 21.2912 32.3628 21.5591 32.3006 21.4253V21.4253Z" fill="#62777F"/>
<path fill-rule="evenodd" clip-rule="evenodd" d="M33.1732 14.7686C33.5764 17.033 32.2408 19.784 31.804 21.919C32.7958 21.1892 33.5622 17.8775 33.7581 16.5812C33.8085 16.433 33.8707 16.06 33.8842 16.0465C33.9465 15.7319 34.5275 15.1987 34.5593 14.8557C34.8975 14.6171 32.8972 14.5788 33.1732 14.7686ZM32.3507 21.4253C32.2884 21.2912 32.2884 21.5591 32.3507 21.4253V21.4253Z" fill="#4E5E67"/>
<path fill-rule="evenodd" clip-rule="evenodd" d="M16.3253 15.752C15.7661 16.3119 15.976 16.1752 16.3922 15.7096L16.3253 15.752ZM22.3736 16.0293C21.7258 17.0026 19.3899 17.8166 19.0957 17.8797C20.5009 17.6164 21.8106 16.7423 22.7323 15.7184C22.5858 15.7836 22.4988 15.9369 22.3736 16.0293ZM15.9411 16.3453C16.2903 17.1848 17.5598 17.7426 18.1766 17.8727C17.3344 17.6013 16.3431 17.1201 15.9411 16.3453ZM22.5914 16.8308C22.4151 17.0389 21.7873 17.3501 21.4563 17.6556C20.7463 18.1792 20.012 18.6658 19.3101 19.2025C19.757 19.1833 21.0666 18.2051 20.3952 19.1977C20.9641 20.1768 22.2027 20.8576 23.3321 20.7955C24.8235 20.5613 26.1988 19.7368 27.1874 18.59C25.9873 19.7775 24.4007 20.8952 22.6449 20.7412C21.7952 20.545 19.4733 19.3456 21.0265 18.5048C21.5742 18.0543 22.5184 17.8184 22.6253 17.0267C22.6029 16.9279 22.7871 16.8314 22.5914 16.8308ZM18.3402 17.9311C18.9053 17.8574 18.9053 18.0049 18.3402 17.9311V17.9311ZM27.1454 19.2832C24.9031 20.8454 22.6933 22.4687 20.4703 24.059C17.9511 25.8619 15.4427 27.6716 12.9242 29.4731C13.8711 29.1538 14.8199 28.5303 15.7606 28.0996C17.0561 27.4143 18.4221 26.8729 19.6343 26.0404C22.0309 24.6295 24.5656 23.2852 26.409 21.1266C26.8113 20.6548 27.2147 19.8952 27.2327 19.3844C27.1747 19.4007 27.2187 19.1801 27.1454 19.2832ZM19.5159 26.3121C19.1125 26.7679 18.9486 27.0937 19.3672 26.514C19.3599 26.5812 19.707 26.1541 19.5159 26.3121ZM25.6533 26.5302C24.5906 27.6507 23.0189 28.459 21.5442 28.5134C23.249 28.5258 24.7872 27.5138 25.9422 26.32C25.8664 26.2283 25.7127 26.5334 25.6533 26.5302ZM25.978 26.8824C22.4077 29.4814 18.7143 32.1772 15.132 34.7669C15.6962 34.9439 16.9251 35.0269 17.4859 34.3044C18.679 33.481 20.0204 32.8757 21.2175 32.0412C22.9509 30.9164 24.8069 29.6869 25.7914 27.7965C25.8383 27.5429 26.1867 27.0869 25.978 26.8824ZM19.1834 27.0473C19.3491 27.7467 21.4202 28.5493 21.1956 28.3957C20.4319 28.128 19.6743 27.7107 19.1834 27.0473Z" fill="#DC9624"/>
</g>
<defs>
<linearGradient id="paint0_linear_30_1543" x1="0" y1="46" x2="46" y2="0" gradientUnits="userSpaceOnUse">
<stop stop-color="#DB7093"/>
<stop offset="1" stop-color="#F3B661"/>
</linearGradient>
<clipPath id="clip0_30_1543">
<rect width="46" height="46" fill="white"/>
</clipPath>
</defs>
</svg>
